<mxfile host="app.diagrams.net" modified="2023-07-12T17:56:34.351Z" agent="Mozilla/5.0 (Windows NT 10.0; Win64; x64) AppleWebKit/537.36 (KHTML, like Gecko) Chrome/114.0.0.0 Safari/537.36 Edg/114.0.1823.79" etag="e5RymXQOkMAADs1PPs6W" version="21.5.2" type="device" pages="2">
  <diagram id="QQSasd68mNKpDC0msPRK" name="Page-1">
    <mxGraphModel dx="4475" dy="484" grid="0" gridSize="10" guides="1" tooltips="1" connect="1" arrows="1" fold="1" page="0" pageScale="1" pageWidth="850" pageHeight="1100" math="0" shadow="0">
      <root>
        <mxCell id="0" />
        <mxCell id="1" parent="0" />
        <mxCell id="4rfjug_CKzswVseqzWr0-8" value="" style="endArrow=classic;html=1;rounded=0;exitX=0.75;exitY=0;exitDx=0;exitDy=0;entryX=0.5;entryY=1;entryDx=0;entryDy=0;" parent="1" source="ZLaS4aYEu88ldTp7AQkV-63" target="zM1hNFOut97ZQfBqWzsU-1" edge="1">
          <mxGeometry width="50" height="50" relative="1" as="geometry">
            <mxPoint x="-363" y="890.5" as="sourcePoint" />
            <mxPoint x="-434.75" y="892.4999999999998" as="targetPoint" />
          </mxGeometry>
        </mxCell>
        <mxCell id="ZLaS4aYEu88ldTp7AQkV-2" value="Growth Module" style="rounded=0;whiteSpace=wrap;html=1;fillColor=#ffcc99;strokeColor=#36393d;" parent="1" vertex="1">
          <mxGeometry x="190" y="70" width="120" height="60" as="geometry" />
        </mxCell>
        <mxCell id="ZLaS4aYEu88ldTp7AQkV-3" value="Nutrient Solution Container Module" style="rounded=0;whiteSpace=wrap;html=1;fillColor=#ffcc99;strokeColor=#36393d;" parent="1" vertex="1">
          <mxGeometry x="190" y="220" width="120" height="60" as="geometry" />
        </mxCell>
        <mxCell id="ZLaS4aYEu88ldTp7AQkV-5" value="" style="endArrow=none;html=1;rounded=0;exitX=0;exitY=0.5;exitDx=0;exitDy=0;" parent="1" source="ZLaS4aYEu88ldTp7AQkV-3" edge="1">
          <mxGeometry width="50" height="50" relative="1" as="geometry">
            <mxPoint x="400" y="230" as="sourcePoint" />
            <mxPoint x="160" y="250" as="targetPoint" />
          </mxGeometry>
        </mxCell>
        <mxCell id="ZLaS4aYEu88ldTp7AQkV-6" value="" style="endArrow=none;html=1;rounded=0;" parent="1" edge="1">
          <mxGeometry width="50" height="50" relative="1" as="geometry">
            <mxPoint x="160" y="250" as="sourcePoint" />
            <mxPoint x="160" y="100" as="targetPoint" />
          </mxGeometry>
        </mxCell>
        <mxCell id="ZLaS4aYEu88ldTp7AQkV-11" value="&lt;span style=&quot;font-size: 12px; background-color: rgb(248, 249, 250);&quot;&gt;Nutrient Solution&lt;br&gt;Intake&lt;br&gt;&lt;/span&gt;" style="edgeLabel;html=1;align=center;verticalAlign=middle;resizable=0;points=[];" parent="ZLaS4aYEu88ldTp7AQkV-6" vertex="1" connectable="0">
          <mxGeometry x="0.1627" relative="1" as="geometry">
            <mxPoint x="-60" y="7" as="offset" />
          </mxGeometry>
        </mxCell>
        <mxCell id="ZLaS4aYEu88ldTp7AQkV-7" value="" style="endArrow=classic;html=1;rounded=0;entryX=0;entryY=0.5;entryDx=0;entryDy=0;" parent="1" target="ZLaS4aYEu88ldTp7AQkV-2" edge="1">
          <mxGeometry width="50" height="50" relative="1" as="geometry">
            <mxPoint x="160" y="100" as="sourcePoint" />
            <mxPoint x="450" y="180" as="targetPoint" />
          </mxGeometry>
        </mxCell>
        <mxCell id="ZLaS4aYEu88ldTp7AQkV-8" value="" style="endArrow=none;html=1;rounded=0;exitX=1;exitY=0.5;exitDx=0;exitDy=0;" parent="1" source="ZLaS4aYEu88ldTp7AQkV-2" edge="1">
          <mxGeometry width="50" height="50" relative="1" as="geometry">
            <mxPoint x="400" y="230" as="sourcePoint" />
            <mxPoint x="340" y="100" as="targetPoint" />
          </mxGeometry>
        </mxCell>
        <mxCell id="ZLaS4aYEu88ldTp7AQkV-9" value="" style="endArrow=none;html=1;rounded=0;" parent="1" edge="1">
          <mxGeometry width="50" height="50" relative="1" as="geometry">
            <mxPoint x="340" y="100" as="sourcePoint" />
            <mxPoint x="340" y="250" as="targetPoint" />
          </mxGeometry>
        </mxCell>
        <mxCell id="ZLaS4aYEu88ldTp7AQkV-12" value="&lt;span style=&quot;font-size: 12px; background-color: rgb(248, 249, 250);&quot;&gt;Nutrient Solution&lt;/span&gt;&lt;br style=&quot;font-size: 12px;&quot;&gt;&lt;span style=&quot;font-size: 12px; background-color: rgb(248, 249, 250);&quot;&gt;Outtake&lt;/span&gt;" style="edgeLabel;html=1;align=center;verticalAlign=middle;resizable=0;points=[];" parent="ZLaS4aYEu88ldTp7AQkV-9" vertex="1" connectable="0">
          <mxGeometry x="-0.1467" y="-1" relative="1" as="geometry">
            <mxPoint x="61" y="6" as="offset" />
          </mxGeometry>
        </mxCell>
        <mxCell id="ZLaS4aYEu88ldTp7AQkV-10" value="" style="endArrow=classic;html=1;rounded=0;entryX=1;entryY=0.5;entryDx=0;entryDy=0;" parent="1" target="ZLaS4aYEu88ldTp7AQkV-3" edge="1">
          <mxGeometry width="50" height="50" relative="1" as="geometry">
            <mxPoint x="340" y="250" as="sourcePoint" />
            <mxPoint x="450" y="180" as="targetPoint" />
          </mxGeometry>
        </mxCell>
        <mxCell id="ZLaS4aYEu88ldTp7AQkV-16" value="" style="rounded=0;whiteSpace=wrap;html=1;" parent="1" vertex="1">
          <mxGeometry x="-610" y="496" width="200" height="100" as="geometry" />
        </mxCell>
        <mxCell id="ZLaS4aYEu88ldTp7AQkV-17" value="" style="rounded=0;whiteSpace=wrap;html=1;" parent="1" vertex="1">
          <mxGeometry x="-583.5" y="526" width="130" height="40" as="geometry" />
        </mxCell>
        <mxCell id="ZLaS4aYEu88ldTp7AQkV-32" value="Humidifier + Dehumidifier" style="rounded=1;whiteSpace=wrap;html=1;fillColor=#f8cecc;strokeColor=#b85450;" parent="1" vertex="1">
          <mxGeometry x="-761" y="566" width="90" height="30" as="geometry" />
        </mxCell>
        <mxCell id="ZLaS4aYEu88ldTp7AQkV-35" value="" style="group" parent="1" vertex="1" connectable="0">
          <mxGeometry x="-571" y="531" width="117.5" height="30" as="geometry" />
        </mxCell>
        <mxCell id="ZLaS4aYEu88ldTp7AQkV-18" value="" style="ellipse;whiteSpace=wrap;html=1;aspect=fixed;" parent="ZLaS4aYEu88ldTp7AQkV-35" vertex="1">
          <mxGeometry width="30" height="30" as="geometry" />
        </mxCell>
        <mxCell id="ZLaS4aYEu88ldTp7AQkV-19" value="" style="ellipse;whiteSpace=wrap;html=1;aspect=fixed;" parent="ZLaS4aYEu88ldTp7AQkV-35" vertex="1">
          <mxGeometry x="45" width="30" height="30" as="geometry" />
        </mxCell>
        <mxCell id="ZLaS4aYEu88ldTp7AQkV-21" value="" style="ellipse;whiteSpace=wrap;html=1;aspect=fixed;" parent="ZLaS4aYEu88ldTp7AQkV-35" vertex="1">
          <mxGeometry x="85" width="30" height="30" as="geometry" />
        </mxCell>
        <mxCell id="ZLaS4aYEu88ldTp7AQkV-68" value="&lt;font style=&quot;font-size: 9px;&quot;&gt;Plant&lt;/font&gt;" style="text;html=1;strokeColor=none;fillColor=none;align=center;verticalAlign=middle;whiteSpace=wrap;rounded=0;" parent="ZLaS4aYEu88ldTp7AQkV-35" vertex="1">
          <mxGeometry y="5" width="35" height="20" as="geometry" />
        </mxCell>
        <mxCell id="ZLaS4aYEu88ldTp7AQkV-67" value="&lt;font style=&quot;font-size: 9px;&quot;&gt;Plant&lt;/font&gt;" style="text;html=1;strokeColor=none;fillColor=none;align=center;verticalAlign=middle;whiteSpace=wrap;rounded=0;" parent="ZLaS4aYEu88ldTp7AQkV-35" vertex="1">
          <mxGeometry x="42.5" y="5" width="35" height="20" as="geometry" />
        </mxCell>
        <mxCell id="ZLaS4aYEu88ldTp7AQkV-65" value="&lt;font style=&quot;font-size: 9px;&quot;&gt;Plant&lt;/font&gt;" style="text;html=1;strokeColor=none;fillColor=none;align=center;verticalAlign=middle;whiteSpace=wrap;rounded=0;" parent="ZLaS4aYEu88ldTp7AQkV-35" vertex="1">
          <mxGeometry x="82.5" y="5" width="35" height="20" as="geometry" />
        </mxCell>
        <mxCell id="ZLaS4aYEu88ldTp7AQkV-36" value="Plant Array" style="text;html=1;strokeColor=none;fillColor=none;align=center;verticalAlign=middle;whiteSpace=wrap;rounded=0;" parent="1" vertex="1">
          <mxGeometry x="-552.25" y="501" width="77.5" height="30" as="geometry" />
        </mxCell>
        <mxCell id="ZLaS4aYEu88ldTp7AQkV-29" value="Temperature sensor" style="rounded=1;whiteSpace=wrap;html=1;fillColor=#fff2cc;strokeColor=#d6b656;" parent="1" vertex="1">
          <mxGeometry x="-648" y="396" width="75" height="30" as="geometry" />
        </mxCell>
        <mxCell id="ZLaS4aYEu88ldTp7AQkV-30" value="Humidity sensor" style="rounded=1;whiteSpace=wrap;html=1;fillColor=#fff2cc;strokeColor=#d6b656;" parent="1" vertex="1">
          <mxGeometry x="-446" y="396" width="75" height="30" as="geometry" />
        </mxCell>
        <mxCell id="ZLaS4aYEu88ldTp7AQkV-33" value="Water Level sensor" style="rounded=1;whiteSpace=wrap;html=1;fillColor=#fff2cc;strokeColor=#d6b656;" parent="1" vertex="1">
          <mxGeometry x="-550" y="396" width="80" height="30" as="geometry" />
        </mxCell>
        <mxCell id="ZLaS4aYEu88ldTp7AQkV-62" value="" style="endArrow=classic;html=1;rounded=0;exitX=1;exitY=0.5;exitDx=0;exitDy=0;entryX=0;entryY=0.851;entryDx=0;entryDy=0;entryPerimeter=0;" parent="1" source="ZLaS4aYEu88ldTp7AQkV-32" target="ZLaS4aYEu88ldTp7AQkV-16" edge="1">
          <mxGeometry width="50" height="50" relative="1" as="geometry">
            <mxPoint x="-571" y="586" as="sourcePoint" />
            <mxPoint x="-621" y="581" as="targetPoint" />
          </mxGeometry>
        </mxCell>
        <mxCell id="ZLaS4aYEu88ldTp7AQkV-74" value="Solenoid Valve (to regulate inflow of CO2 from the cylinder)" style="rounded=1;whiteSpace=wrap;html=1;fillColor=#f8cecc;strokeColor=#b85450;" parent="1" vertex="1">
          <mxGeometry x="-616.5" y="627" width="103" height="81" as="geometry" />
        </mxCell>
        <mxCell id="ZLaS4aYEu88ldTp7AQkV-75" value="" style="endArrow=classic;html=1;rounded=0;fontSize=9;exitX=0.5;exitY=0;exitDx=0;exitDy=0;entryX=0.25;entryY=1;entryDx=0;entryDy=0;" parent="1" source="ZLaS4aYEu88ldTp7AQkV-74" edge="1">
          <mxGeometry width="50" height="50" relative="1" as="geometry">
            <mxPoint x="-466" y="566" as="sourcePoint" />
            <mxPoint x="-565" y="596" as="targetPoint" />
          </mxGeometry>
        </mxCell>
        <mxCell id="su_p7eKiATEF8SMmbVVe-2" value="" style="endArrow=classic;html=1;rounded=0;exitX=0.5;exitY=0;exitDx=0;exitDy=0;entryX=0.5;entryY=1;entryDx=0;entryDy=0;" parent="1" source="ZLaS4aYEu88ldTp7AQkV-16" target="ZLaS4aYEu88ldTp7AQkV-33" edge="1">
          <mxGeometry width="50" height="50" relative="1" as="geometry">
            <mxPoint x="-457" y="459" as="sourcePoint" />
            <mxPoint x="-507" y="509" as="targetPoint" />
          </mxGeometry>
        </mxCell>
        <mxCell id="su_p7eKiATEF8SMmbVVe-4" value="" style="endArrow=classic;html=1;rounded=0;exitX=0.25;exitY=0;exitDx=0;exitDy=0;entryX=0.5;entryY=1;entryDx=0;entryDy=0;" parent="1" source="ZLaS4aYEu88ldTp7AQkV-16" target="ZLaS4aYEu88ldTp7AQkV-29" edge="1">
          <mxGeometry width="50" height="50" relative="1" as="geometry">
            <mxPoint x="-457" y="404" as="sourcePoint" />
            <mxPoint x="-507" y="454" as="targetPoint" />
          </mxGeometry>
        </mxCell>
        <mxCell id="su_p7eKiATEF8SMmbVVe-5" value="" style="endArrow=classic;html=1;rounded=0;exitX=0.75;exitY=0;exitDx=0;exitDy=0;entryX=0.5;entryY=1;entryDx=0;entryDy=0;" parent="1" source="ZLaS4aYEu88ldTp7AQkV-16" target="ZLaS4aYEu88ldTp7AQkV-30" edge="1">
          <mxGeometry width="50" height="50" relative="1" as="geometry">
            <mxPoint x="-457" y="404" as="sourcePoint" />
            <mxPoint x="-507" y="454" as="targetPoint" />
          </mxGeometry>
        </mxCell>
        <mxCell id="su_p7eKiATEF8SMmbVVe-8" value="Camera" style="rounded=1;whiteSpace=wrap;html=1;fillColor=#fff2cc;strokeColor=#d6b656;" parent="1" vertex="1">
          <mxGeometry x="-365.5" y="496" width="60" height="20" as="geometry" />
        </mxCell>
        <mxCell id="su_p7eKiATEF8SMmbVVe-21" value="" style="endArrow=classic;html=1;rounded=0;fontSize=14;entryX=0;entryY=0.5;entryDx=0;entryDy=0;exitX=1.001;exitY=0.1;exitDx=0;exitDy=0;exitPerimeter=0;" parent="1" source="ZLaS4aYEu88ldTp7AQkV-16" target="su_p7eKiATEF8SMmbVVe-8" edge="1">
          <mxGeometry width="50" height="50" relative="1" as="geometry">
            <mxPoint x="-409" y="506" as="sourcePoint" />
            <mxPoint x="-295" y="550" as="targetPoint" />
          </mxGeometry>
        </mxCell>
        <mxCell id="ZLaS4aYEu88ldTp7AQkV-31" value="&lt;span style=&quot;font-size: 12px;&quot;&gt;Thermoelectric Cooler&lt;/span&gt;" style="rounded=1;whiteSpace=wrap;html=1;fillColor=#f8cecc;strokeColor=#b85450;" parent="1" vertex="1">
          <mxGeometry x="-761" y="496" width="90" height="30" as="geometry" />
        </mxCell>
        <mxCell id="ZLaS4aYEu88ldTp7AQkV-61" value="" style="endArrow=classic;html=1;rounded=0;exitX=1;exitY=0.5;exitDx=0;exitDy=0;entryX=-0.003;entryY=0.152;entryDx=0;entryDy=0;entryPerimeter=0;" parent="1" source="ZLaS4aYEu88ldTp7AQkV-31" target="ZLaS4aYEu88ldTp7AQkV-16" edge="1">
          <mxGeometry width="50" height="50" relative="1" as="geometry">
            <mxPoint x="-471" y="496" as="sourcePoint" />
            <mxPoint x="-621" y="511" as="targetPoint" />
          </mxGeometry>
        </mxCell>
        <mxCell id="A6l-WNQ9AUNoH-VFnXK9-5" value="&lt;span style=&quot;font-size: 12px;&quot;&gt;LED Array (to provide light)&lt;/span&gt;" style="rounded=1;whiteSpace=wrap;html=1;fillColor=#f8cecc;strokeColor=#b85450;" parent="1" vertex="1">
          <mxGeometry x="-761" y="531" width="90" height="30" as="geometry" />
        </mxCell>
        <mxCell id="A6l-WNQ9AUNoH-VFnXK9-6" value="" style="endArrow=classic;html=1;rounded=0;exitX=1;exitY=0.5;exitDx=0;exitDy=0;entryX=0;entryY=0.5;entryDx=0;entryDy=0;" parent="1" source="A6l-WNQ9AUNoH-VFnXK9-5" target="ZLaS4aYEu88ldTp7AQkV-16" edge="1">
          <mxGeometry width="50" height="50" relative="1" as="geometry">
            <mxPoint x="-675" y="576" as="sourcePoint" />
            <mxPoint x="-625" y="526" as="targetPoint" />
          </mxGeometry>
        </mxCell>
        <mxCell id="A6l-WNQ9AUNoH-VFnXK9-9" value="Solenoid Valve (to regulate airflow)" style="rounded=1;whiteSpace=wrap;html=1;fillColor=#f8cecc;strokeColor=#b85450;" parent="1" vertex="1">
          <mxGeometry x="-506" y="627" width="135" height="83" as="geometry" />
        </mxCell>
        <mxCell id="A6l-WNQ9AUNoH-VFnXK9-10" value="" style="endArrow=classic;html=1;rounded=0;exitX=0.5;exitY=0;exitDx=0;exitDy=0;entryX=0.856;entryY=1.003;entryDx=0;entryDy=0;entryPerimeter=0;" parent="1" source="A6l-WNQ9AUNoH-VFnXK9-9" target="ZLaS4aYEu88ldTp7AQkV-16" edge="1">
          <mxGeometry width="50" height="50" relative="1" as="geometry">
            <mxPoint x="-449" y="615" as="sourcePoint" />
            <mxPoint x="-438" y="598" as="targetPoint" />
          </mxGeometry>
        </mxCell>
        <mxCell id="-xlDapH0AE7ELv1Orgcn-3" value="" style="edgeStyle=orthogonalEdgeStyle;rounded=0;orthogonalLoop=1;jettySize=auto;html=1;" parent="1" source="ZLaS4aYEu88ldTp7AQkV-63" target="-xlDapH0AE7ELv1Orgcn-1" edge="1">
          <mxGeometry relative="1" as="geometry" />
        </mxCell>
        <mxCell id="ZLaS4aYEu88ldTp7AQkV-63" value="Nutrient Solution Container" style="rounded=0;whiteSpace=wrap;html=1;" parent="1" vertex="1">
          <mxGeometry x="-600.5" y="939.5" width="200" height="100" as="geometry" />
        </mxCell>
        <mxCell id="ZLaS4aYEu88ldTp7AQkV-64" value="Solenoid Valve (to regulate the flow of nutrient solution)" style="rounded=1;whiteSpace=wrap;html=1;fillColor=#f8cecc;strokeColor=#b85450;" parent="1" vertex="1">
          <mxGeometry x="-358" y="927.5" width="105" height="55" as="geometry" />
        </mxCell>
        <mxCell id="A6l-WNQ9AUNoH-VFnXK9-20" value="" style="edgeStyle=orthogonalEdgeStyle;rounded=0;orthogonalLoop=1;jettySize=auto;html=1;" parent="1" source="ZLaS4aYEu88ldTp7AQkV-69" target="A6l-WNQ9AUNoH-VFnXK9-19" edge="1">
          <mxGeometry relative="1" as="geometry" />
        </mxCell>
        <mxCell id="ZLaS4aYEu88ldTp7AQkV-69" value="pH Buffer" style="rounded=1;whiteSpace=wrap;html=1;" parent="1" vertex="1">
          <mxGeometry x="-234.5" y="999.5" width="60" height="30" as="geometry" />
        </mxCell>
        <mxCell id="ZLaS4aYEu88ldTp7AQkV-70" value="pH sensor" style="rounded=1;whiteSpace=wrap;html=1;fillColor=#fff2cc;strokeColor=#d6b656;" parent="1" vertex="1">
          <mxGeometry x="-449" y="1075.5" width="60" height="30" as="geometry" />
        </mxCell>
        <mxCell id="ZLaS4aYEu88ldTp7AQkV-71" value="Water Pump" style="rounded=1;whiteSpace=wrap;html=1;fillColor=#f8cecc;strokeColor=#b85450;" parent="1" vertex="1">
          <mxGeometry x="-716.5" y="937.5" width="73" height="45" as="geometry" />
        </mxCell>
        <mxCell id="ZLaS4aYEu88ldTp7AQkV-72" value="Air Pump" style="rounded=1;whiteSpace=wrap;html=1;fillColor=#f8cecc;strokeColor=#b85450;" parent="1" vertex="1">
          <mxGeometry x="-717" y="997.5" width="74" height="34" as="geometry" />
        </mxCell>
        <mxCell id="ZLaS4aYEu88ldTp7AQkV-77" value="Nutrient Solution A" style="rounded=1;whiteSpace=wrap;html=1;" parent="1" vertex="1">
          <mxGeometry x="-170" y="909.5" width="60" height="30" as="geometry" />
        </mxCell>
        <mxCell id="ZLaS4aYEu88ldTp7AQkV-78" value="Nutrient Solution B" style="rounded=1;whiteSpace=wrap;html=1;" parent="1" vertex="1">
          <mxGeometry x="-169" y="969.5" width="60" height="30" as="geometry" />
        </mxCell>
        <mxCell id="ZLaS4aYEu88ldTp7AQkV-79" value="" style="endArrow=classic;html=1;rounded=0;fontSize=9;exitX=0;exitY=0.5;exitDx=0;exitDy=0;entryX=1;entryY=0.5;entryDx=0;entryDy=0;" parent="1" source="ZLaS4aYEu88ldTp7AQkV-77" target="ZLaS4aYEu88ldTp7AQkV-64" edge="1">
          <mxGeometry width="50" height="50" relative="1" as="geometry">
            <mxPoint x="-423" y="979.5" as="sourcePoint" />
            <mxPoint x="-373" y="929.5" as="targetPoint" />
          </mxGeometry>
        </mxCell>
        <mxCell id="ZLaS4aYEu88ldTp7AQkV-80" value="" style="endArrow=classic;html=1;rounded=0;fontSize=9;exitX=0;exitY=0.5;exitDx=0;exitDy=0;entryX=1;entryY=0.5;entryDx=0;entryDy=0;" parent="1" source="ZLaS4aYEu88ldTp7AQkV-78" target="ZLaS4aYEu88ldTp7AQkV-64" edge="1">
          <mxGeometry width="50" height="50" relative="1" as="geometry">
            <mxPoint x="-423" y="979.5" as="sourcePoint" />
            <mxPoint x="-373" y="929.5" as="targetPoint" />
          </mxGeometry>
        </mxCell>
        <mxCell id="yg0ZxnerVrGQG-u5jMa2-2" value="Electrical Conductivity sensor (to measure nutrient levels)" style="rounded=1;whiteSpace=wrap;html=1;fillColor=#fff2cc;strokeColor=#d6b656;" parent="1" vertex="1">
          <mxGeometry x="-664" y="1075.5" width="110" height="70" as="geometry" />
        </mxCell>
        <mxCell id="yg0ZxnerVrGQG-u5jMa2-3" value="" style="endArrow=classic;html=1;rounded=0;fontSize=9;exitX=1;exitY=0.5;exitDx=0;exitDy=0;entryX=-0.007;entryY=0.203;entryDx=0;entryDy=0;entryPerimeter=0;" parent="1" source="ZLaS4aYEu88ldTp7AQkV-71" target="ZLaS4aYEu88ldTp7AQkV-63" edge="1">
          <mxGeometry width="50" height="50" relative="1" as="geometry">
            <mxPoint x="-478" y="1029.5" as="sourcePoint" />
            <mxPoint x="-428" y="979.5" as="targetPoint" />
          </mxGeometry>
        </mxCell>
        <mxCell id="yg0ZxnerVrGQG-u5jMa2-4" value="" style="endArrow=classic;html=1;rounded=0;fontSize=9;exitX=1;exitY=0.5;exitDx=0;exitDy=0;entryX=0;entryY=0.75;entryDx=0;entryDy=0;" parent="1" source="ZLaS4aYEu88ldTp7AQkV-72" target="ZLaS4aYEu88ldTp7AQkV-63" edge="1">
          <mxGeometry width="50" height="50" relative="1" as="geometry">
            <mxPoint x="-478" y="1029.5" as="sourcePoint" />
            <mxPoint x="-428" y="979.5" as="targetPoint" />
          </mxGeometry>
        </mxCell>
        <mxCell id="yg0ZxnerVrGQG-u5jMa2-5" value="" style="endArrow=classic;html=1;rounded=0;fontSize=9;exitX=0;exitY=0.5;exitDx=0;exitDy=0;entryX=1;entryY=0.149;entryDx=0;entryDy=0;entryPerimeter=0;" parent="1" source="ZLaS4aYEu88ldTp7AQkV-64" target="ZLaS4aYEu88ldTp7AQkV-63" edge="1">
          <mxGeometry width="50" height="50" relative="1" as="geometry">
            <mxPoint x="-478" y="1029.5" as="sourcePoint" />
            <mxPoint x="-398" y="954.5" as="targetPoint" />
          </mxGeometry>
        </mxCell>
        <mxCell id="yg0ZxnerVrGQG-u5jMa2-7" value="" style="endArrow=classic;html=1;rounded=0;fontSize=9;exitX=0.25;exitY=1;exitDx=0;exitDy=0;entryX=0.362;entryY=-0.009;entryDx=0;entryDy=0;entryPerimeter=0;" parent="1" source="ZLaS4aYEu88ldTp7AQkV-63" target="yg0ZxnerVrGQG-u5jMa2-2" edge="1">
          <mxGeometry width="50" height="50" relative="1" as="geometry">
            <mxPoint x="-560.5" y="1039.5" as="sourcePoint" />
            <mxPoint x="-478" y="1039.5" as="targetPoint" />
          </mxGeometry>
        </mxCell>
        <mxCell id="yg0ZxnerVrGQG-u5jMa2-8" value="" style="endArrow=classic;html=1;rounded=0;fontSize=9;exitX=0.75;exitY=1;exitDx=0;exitDy=0;entryX=0.465;entryY=-0.016;entryDx=0;entryDy=0;entryPerimeter=0;" parent="1" source="ZLaS4aYEu88ldTp7AQkV-63" target="ZLaS4aYEu88ldTp7AQkV-70" edge="1">
          <mxGeometry width="50" height="50" relative="1" as="geometry">
            <mxPoint x="-448" y="1079.5" as="sourcePoint" />
            <mxPoint x="-398" y="1029.5" as="targetPoint" />
          </mxGeometry>
        </mxCell>
        <mxCell id="A6l-WNQ9AUNoH-VFnXK9-18" value="" style="edgeStyle=orthogonalEdgeStyle;rounded=0;orthogonalLoop=1;jettySize=auto;html=1;" parent="1" source="ZLaS4aYEu88ldTp7AQkV-69" target="A6l-WNQ9AUNoH-VFnXK9-13" edge="1">
          <mxGeometry relative="1" as="geometry" />
        </mxCell>
        <mxCell id="A6l-WNQ9AUNoH-VFnXK9-13" value="Water Level sensor" style="rounded=1;whiteSpace=wrap;html=1;fillColor=#fff2cc;strokeColor=#d6b656;" parent="1" vertex="1">
          <mxGeometry x="-244.5" y="1064.5" width="80" height="30" as="geometry" />
        </mxCell>
        <mxCell id="A6l-WNQ9AUNoH-VFnXK9-21" value="" style="edgeStyle=orthogonalEdgeStyle;rounded=0;orthogonalLoop=1;jettySize=auto;html=1;" parent="1" source="A6l-WNQ9AUNoH-VFnXK9-19" target="ZLaS4aYEu88ldTp7AQkV-63" edge="1">
          <mxGeometry relative="1" as="geometry">
            <Array as="points">
              <mxPoint x="-388" y="1014.5" />
              <mxPoint x="-388" y="1014.5" />
            </Array>
          </mxGeometry>
        </mxCell>
        <mxCell id="A6l-WNQ9AUNoH-VFnXK9-19" value="Solenoid Valve (to regulate the flow of pH Buffer)" style="rounded=1;whiteSpace=wrap;html=1;fillColor=#f8cecc;strokeColor=#b85450;" parent="1" vertex="1">
          <mxGeometry x="-358" y="987.5" width="107" height="54" as="geometry" />
        </mxCell>
        <mxCell id="4rfjug_CKzswVseqzWr0-9" value="Water Level sensor" style="rounded=1;whiteSpace=wrap;html=1;fillColor=#fff2cc;strokeColor=#d6b656;" parent="1" vertex="1">
          <mxGeometry x="-73.5" y="910" width="68" height="29" as="geometry" />
        </mxCell>
        <mxCell id="4rfjug_CKzswVseqzWr0-10" value="Water Level sensor" style="rounded=1;whiteSpace=wrap;html=1;fillColor=#fff2cc;strokeColor=#d6b656;" parent="1" vertex="1">
          <mxGeometry x="-73.5" y="970.5" width="68.5" height="28" as="geometry" />
        </mxCell>
        <mxCell id="4rfjug_CKzswVseqzWr0-11" value="" style="endArrow=classic;html=1;rounded=0;exitX=1;exitY=0.5;exitDx=0;exitDy=0;entryX=0;entryY=0.5;entryDx=0;entryDy=0;" parent="1" source="ZLaS4aYEu88ldTp7AQkV-77" target="4rfjug_CKzswVseqzWr0-9" edge="1">
          <mxGeometry width="50" height="50" relative="1" as="geometry">
            <mxPoint x="-120" y="969.5" as="sourcePoint" />
            <mxPoint x="-70" y="919.5" as="targetPoint" />
          </mxGeometry>
        </mxCell>
        <mxCell id="4rfjug_CKzswVseqzWr0-12" value="" style="endArrow=classic;html=1;rounded=0;exitX=1;exitY=0.5;exitDx=0;exitDy=0;entryX=0;entryY=0.5;entryDx=0;entryDy=0;" parent="1" source="ZLaS4aYEu88ldTp7AQkV-78" target="4rfjug_CKzswVseqzWr0-10" edge="1">
          <mxGeometry width="50" height="50" relative="1" as="geometry">
            <mxPoint x="-120" y="969.5" as="sourcePoint" />
            <mxPoint x="-70" y="919.5" as="targetPoint" />
          </mxGeometry>
        </mxCell>
        <mxCell id="be0GZTbyugUjXy5_z_ly-1" value="CO2 sensor" style="rounded=1;whiteSpace=wrap;html=1;fillColor=#fff2cc;strokeColor=#d6b656;" parent="1" vertex="1">
          <mxGeometry x="-746.5" y="396" width="75" height="30" as="geometry" />
        </mxCell>
        <mxCell id="be0GZTbyugUjXy5_z_ly-2" value="Light Intensity sensor" style="rounded=1;whiteSpace=wrap;html=1;fillColor=#fff2cc;strokeColor=#d6b656;" parent="1" vertex="1">
          <mxGeometry x="-350" y="396" width="80" height="30" as="geometry" />
        </mxCell>
        <mxCell id="be0GZTbyugUjXy5_z_ly-5" value="" style="endArrow=classic;html=1;rounded=0;entryX=0.5;entryY=1;entryDx=0;entryDy=0;exitX=0.168;exitY=-0.001;exitDx=0;exitDy=0;exitPerimeter=0;" parent="1" source="ZLaS4aYEu88ldTp7AQkV-16" target="be0GZTbyugUjXy5_z_ly-1" edge="1">
          <mxGeometry width="50" height="50" relative="1" as="geometry">
            <mxPoint x="-559" y="511" as="sourcePoint" />
            <mxPoint x="-676" y="430" as="targetPoint" />
          </mxGeometry>
        </mxCell>
        <mxCell id="be0GZTbyugUjXy5_z_ly-6" value="" style="endArrow=classic;html=1;rounded=0;entryX=0.5;entryY=1;entryDx=0;entryDy=0;exitX=0.841;exitY=-0.001;exitDx=0;exitDy=0;exitPerimeter=0;" parent="1" source="ZLaS4aYEu88ldTp7AQkV-16" target="be0GZTbyugUjXy5_z_ly-2" edge="1">
          <mxGeometry width="50" height="50" relative="1" as="geometry">
            <mxPoint x="-442" y="495" as="sourcePoint" />
            <mxPoint x="-355" y="475" as="targetPoint" />
          </mxGeometry>
        </mxCell>
        <mxCell id="zM1hNFOut97ZQfBqWzsU-1" value="Water Level sensor" style="rounded=1;whiteSpace=wrap;html=1;fillColor=#fff2cc;strokeColor=#d6b656;" parent="1" vertex="1">
          <mxGeometry x="-419" y="862" width="68" height="29" as="geometry" />
        </mxCell>
        <mxCell id="zM1hNFOut97ZQfBqWzsU-2" value="&lt;span style=&quot;font-size: 12px;&quot;&gt;Thermoelectric Cooler&lt;/span&gt;" style="rounded=1;whiteSpace=wrap;html=1;fillColor=#f8cecc;strokeColor=#b85450;" parent="1" vertex="1">
          <mxGeometry x="-672" y="861" width="90" height="30" as="geometry" />
        </mxCell>
        <mxCell id="zM1hNFOut97ZQfBqWzsU-4" value="&lt;span style=&quot;font-size: 12px;&quot;&gt;Thermoelectric Heater&lt;/span&gt;" style="rounded=1;whiteSpace=wrap;html=1;fillColor=#f8cecc;strokeColor=#b85450;" parent="1" vertex="1">
          <mxGeometry x="-545.5" y="861" width="90" height="30" as="geometry" />
        </mxCell>
        <mxCell id="zM1hNFOut97ZQfBqWzsU-7" value="" style="endArrow=classic;html=1;rounded=0;exitX=0.5;exitY=1;exitDx=0;exitDy=0;entryX=0.25;entryY=0;entryDx=0;entryDy=0;" parent="1" source="zM1hNFOut97ZQfBqWzsU-2" target="ZLaS4aYEu88ldTp7AQkV-63" edge="1">
          <mxGeometry width="50" height="50" relative="1" as="geometry">
            <mxPoint x="-352" y="1000.5" as="sourcePoint" />
            <mxPoint x="-402" y="1050.5" as="targetPoint" />
          </mxGeometry>
        </mxCell>
        <mxCell id="zM1hNFOut97ZQfBqWzsU-8" value="" style="endArrow=classic;html=1;rounded=0;exitX=0.5;exitY=1;exitDx=0;exitDy=0;entryX=0.5;entryY=0;entryDx=0;entryDy=0;" parent="1" source="zM1hNFOut97ZQfBqWzsU-4" target="ZLaS4aYEu88ldTp7AQkV-63" edge="1">
          <mxGeometry width="50" height="50" relative="1" as="geometry">
            <mxPoint x="-352" y="1000.5" as="sourcePoint" />
            <mxPoint x="-402" y="1050.5" as="targetPoint" />
          </mxGeometry>
        </mxCell>
        <mxCell id="-xlDapH0AE7ELv1Orgcn-1" value="Temperature sensor" style="rounded=1;whiteSpace=wrap;html=1;fillColor=#fff2cc;strokeColor=#d6b656;" parent="1" vertex="1">
          <mxGeometry x="-537.5" y="1075.5" width="75" height="30" as="geometry" />
        </mxCell>
        <mxCell id="A_3v8HXZ6naFGi0Af-2t-7" value="Nutrient Solution Container Module" style="rounded=1;whiteSpace=wrap;html=1;fillColor=#ffcc99;strokeColor=#36393d;" parent="1" vertex="1">
          <mxGeometry x="1391.5" y="916" width="120" height="60" as="geometry" />
        </mxCell>
        <mxCell id="A_3v8HXZ6naFGi0Af-2t-9" value="Growth Module 1" style="rounded=1;whiteSpace=wrap;html=1;fillColor=#ffcc99;strokeColor=#36393d;" parent="1" vertex="1">
          <mxGeometry x="1632" y="916" width="120" height="60" as="geometry" />
        </mxCell>
        <mxCell id="A_3v8HXZ6naFGi0Af-2t-10" value="Growth Module 2" style="rounded=1;whiteSpace=wrap;html=1;flipV=1;flipH=1;fillColor=#ffcc99;strokeColor=#36393d;" parent="1" vertex="1">
          <mxGeometry x="1510.25" y="1312" width="120" height="60" as="geometry" />
        </mxCell>
        <mxCell id="A_3v8HXZ6naFGi0Af-2t-15" value="Raspberry Pi 3" style="rounded=1;whiteSpace=wrap;html=1;flipV=1;flipH=1;fillColor=#e1d5e7;strokeColor=#9673a6;" parent="1" vertex="1">
          <mxGeometry x="1517" y="1120" width="120" height="60" as="geometry" />
        </mxCell>
        <mxCell id="f66W5XodOHnnnX5uXkB2-1" value="&lt;span style=&quot;font-size: 12px;&quot;&gt;Thermoelectric Cooler&lt;/span&gt;" style="rounded=1;whiteSpace=wrap;html=1;fillColor=#f8cecc;strokeColor=#b85450;" parent="1" vertex="1">
          <mxGeometry x="-365.5" y="557" width="90" height="30" as="geometry" />
        </mxCell>
        <mxCell id="f66W5XodOHnnnX5uXkB2-3" value="" style="endArrow=classic;html=1;rounded=0;exitX=0;exitY=0.5;exitDx=0;exitDy=0;entryX=1;entryY=0.75;entryDx=0;entryDy=0;" parent="1" source="f66W5XodOHnnnX5uXkB2-1" target="ZLaS4aYEu88ldTp7AQkV-16" edge="1">
          <mxGeometry width="50" height="50" relative="1" as="geometry">
            <mxPoint x="-390" y="540" as="sourcePoint" />
            <mxPoint x="-269" y="575" as="targetPoint" />
          </mxGeometry>
        </mxCell>
        <mxCell id="YafXo0t1VoJHXmda4DZ2-2" value="" style="endArrow=classic;html=1;rounded=0;exitX=0.75;exitY=0;exitDx=0;exitDy=0;entryX=0.5;entryY=1;entryDx=0;entryDy=0;" parent="1" source="YafXo0t1VoJHXmda4DZ2-32" target="YafXo0t1VoJHXmda4DZ2-61" edge="1">
          <mxGeometry width="50" height="50" relative="1" as="geometry">
            <mxPoint x="-1779" y="742.5" as="sourcePoint" />
            <mxPoint x="-1850.75" y="744.4999999999998" as="targetPoint" />
          </mxGeometry>
        </mxCell>
        <mxCell id="YafXo0t1VoJHXmda4DZ2-3" value="" style="rounded=0;whiteSpace=wrap;html=1;fillColor=#ffcc99;strokeColor=#36393d;" parent="1" vertex="1">
          <mxGeometry x="-2026" y="348" width="200" height="100" as="geometry" />
        </mxCell>
        <mxCell id="YafXo0t1VoJHXmda4DZ2-4" value="" style="rounded=0;whiteSpace=wrap;html=1;" parent="1" vertex="1">
          <mxGeometry x="-1993.25" y="378" width="130" height="40" as="geometry" />
        </mxCell>
        <mxCell id="YafXo0t1VoJHXmda4DZ2-6" value="" style="group;fillColor=#f5f5f5;strokeColor=#666666;fontColor=#333333;" parent="1" vertex="1" connectable="0">
          <mxGeometry x="-1986.5" y="383" width="117.5" height="30" as="geometry" />
        </mxCell>
        <mxCell id="YafXo0t1VoJHXmda4DZ2-7" value="" style="ellipse;whiteSpace=wrap;html=1;aspect=fixed;fillColor=#d5e8d4;strokeColor=#82b366;" parent="YafXo0t1VoJHXmda4DZ2-6" vertex="1">
          <mxGeometry width="30" height="30" as="geometry" />
        </mxCell>
        <mxCell id="YafXo0t1VoJHXmda4DZ2-8" value="" style="ellipse;whiteSpace=wrap;html=1;aspect=fixed;fillColor=#d5e8d4;strokeColor=#82b366;" parent="YafXo0t1VoJHXmda4DZ2-6" vertex="1">
          <mxGeometry x="45" width="30" height="30" as="geometry" />
        </mxCell>
        <mxCell id="YafXo0t1VoJHXmda4DZ2-9" value="" style="ellipse;whiteSpace=wrap;html=1;aspect=fixed;fillColor=#d5e8d4;strokeColor=#82b366;" parent="YafXo0t1VoJHXmda4DZ2-6" vertex="1">
          <mxGeometry x="85" width="30" height="30" as="geometry" />
        </mxCell>
        <mxCell id="YafXo0t1VoJHXmda4DZ2-12" value="&lt;font style=&quot;font-size: 9px;&quot;&gt;Plant&lt;/font&gt;" style="text;html=1;strokeColor=none;fillColor=none;align=center;verticalAlign=middle;whiteSpace=wrap;rounded=0;" parent="YafXo0t1VoJHXmda4DZ2-6" vertex="1">
          <mxGeometry x="82.5" y="5" width="35" height="20" as="geometry" />
        </mxCell>
        <mxCell id="YafXo0t1VoJHXmda4DZ2-11" value="&lt;font style=&quot;font-size: 9px;&quot;&gt;Plant&lt;/font&gt;" style="text;html=1;strokeColor=none;fillColor=none;align=center;verticalAlign=middle;whiteSpace=wrap;rounded=0;" parent="YafXo0t1VoJHXmda4DZ2-6" vertex="1">
          <mxGeometry x="42.5" y="1" width="35" height="28" as="geometry" />
        </mxCell>
        <mxCell id="YafXo0t1VoJHXmda4DZ2-10" value="&lt;font style=&quot;font-size: 9px;&quot;&gt;Plant&lt;/font&gt;" style="text;html=1;strokeColor=none;fillColor=none;align=center;verticalAlign=middle;whiteSpace=wrap;rounded=0;" parent="YafXo0t1VoJHXmda4DZ2-6" vertex="1">
          <mxGeometry x="-2.5" y="5" width="35" height="20" as="geometry" />
        </mxCell>
        <mxCell id="YafXo0t1VoJHXmda4DZ2-13" value="Plant Array" style="text;html=1;strokeColor=none;fillColor=none;align=center;verticalAlign=middle;whiteSpace=wrap;rounded=0;" parent="1" vertex="1">
          <mxGeometry x="-1968.25" y="353" width="77.5" height="30" as="geometry" />
        </mxCell>
        <mxCell id="YafXo0t1VoJHXmda4DZ2-17" value="" style="endArrow=classic;html=1;rounded=0;exitX=1;exitY=0.5;exitDx=0;exitDy=0;entryX=0;entryY=0.851;entryDx=0;entryDy=0;entryPerimeter=0;" parent="1" source="YafXo0t1VoJHXmda4DZ2-5" target="YafXo0t1VoJHXmda4DZ2-3" edge="1">
          <mxGeometry width="50" height="50" relative="1" as="geometry">
            <mxPoint x="-1987" y="438" as="sourcePoint" />
            <mxPoint x="-2037" y="433" as="targetPoint" />
          </mxGeometry>
        </mxCell>
        <mxCell id="YafXo0t1VoJHXmda4DZ2-18" value="Solenoid Valve (to regulate inflow of Carbon Dioxide from the cylinder)" style="rounded=1;whiteSpace=wrap;html=1;fillColor=#f8cecc;strokeColor=#b85450;" parent="1" vertex="1">
          <mxGeometry x="-2030" y="482" width="103" height="65" as="geometry" />
        </mxCell>
        <mxCell id="YafXo0t1VoJHXmda4DZ2-21" value="" style="endArrow=classic;html=1;rounded=0;exitX=0.25;exitY=0;exitDx=0;exitDy=0;entryX=0.5;entryY=1;entryDx=0;entryDy=0;" parent="1" source="YafXo0t1VoJHXmda4DZ2-3" target="YafXo0t1VoJHXmda4DZ2-14" edge="1">
          <mxGeometry width="50" height="50" relative="1" as="geometry">
            <mxPoint x="-1873" y="256" as="sourcePoint" />
            <mxPoint x="-1923" y="306" as="targetPoint" />
          </mxGeometry>
        </mxCell>
        <mxCell id="YafXo0t1VoJHXmda4DZ2-22" value="" style="endArrow=classic;html=1;rounded=0;exitX=0.75;exitY=0;exitDx=0;exitDy=0;entryX=0.5;entryY=1;entryDx=0;entryDy=0;" parent="1" source="YafXo0t1VoJHXmda4DZ2-3" target="YafXo0t1VoJHXmda4DZ2-15" edge="1">
          <mxGeometry width="50" height="50" relative="1" as="geometry">
            <mxPoint x="-1873" y="256" as="sourcePoint" />
            <mxPoint x="-1923" y="306" as="targetPoint" />
          </mxGeometry>
        </mxCell>
        <mxCell id="YafXo0t1VoJHXmda4DZ2-23" value="Camera" style="rounded=1;whiteSpace=wrap;html=1;fillColor=#fff2cc;strokeColor=#d6b656;" parent="1" vertex="1">
          <mxGeometry x="-1778" y="388" width="60" height="20" as="geometry" />
        </mxCell>
        <mxCell id="YafXo0t1VoJHXmda4DZ2-24" value="" style="endArrow=classic;html=1;rounded=0;fontSize=14;entryX=0;entryY=0.5;entryDx=0;entryDy=0;exitX=1;exitY=0.5;exitDx=0;exitDy=0;" parent="1" source="YafXo0t1VoJHXmda4DZ2-3" target="YafXo0t1VoJHXmda4DZ2-23" edge="1">
          <mxGeometry width="50" height="50" relative="1" as="geometry">
            <mxPoint x="-1825" y="358" as="sourcePoint" />
            <mxPoint x="-1711" y="402" as="targetPoint" />
          </mxGeometry>
        </mxCell>
        <mxCell id="YafXo0t1VoJHXmda4DZ2-26" value="" style="endArrow=classic;html=1;rounded=0;exitX=1;exitY=0.5;exitDx=0;exitDy=0;entryX=-0.003;entryY=0.152;entryDx=0;entryDy=0;entryPerimeter=0;" parent="1" source="YafXo0t1VoJHXmda4DZ2-25" target="YafXo0t1VoJHXmda4DZ2-3" edge="1">
          <mxGeometry width="50" height="50" relative="1" as="geometry">
            <mxPoint x="-1887" y="348" as="sourcePoint" />
            <mxPoint x="-2037" y="363" as="targetPoint" />
          </mxGeometry>
        </mxCell>
        <mxCell id="YafXo0t1VoJHXmda4DZ2-28" value="" style="endArrow=classic;html=1;rounded=0;exitX=1;exitY=0.5;exitDx=0;exitDy=0;entryX=0;entryY=0.5;entryDx=0;entryDy=0;" parent="1" source="YafXo0t1VoJHXmda4DZ2-27" target="YafXo0t1VoJHXmda4DZ2-3" edge="1">
          <mxGeometry width="50" height="50" relative="1" as="geometry">
            <mxPoint x="-2091" y="428" as="sourcePoint" />
            <mxPoint x="-2041" y="378" as="targetPoint" />
          </mxGeometry>
        </mxCell>
        <mxCell id="YafXo0t1VoJHXmda4DZ2-31" value="" style="edgeStyle=orthogonalEdgeStyle;rounded=0;orthogonalLoop=1;jettySize=auto;html=1;" parent="1" source="YafXo0t1VoJHXmda4DZ2-32" target="YafXo0t1VoJHXmda4DZ2-66" edge="1">
          <mxGeometry relative="1" as="geometry" />
        </mxCell>
        <mxCell id="YafXo0t1VoJHXmda4DZ2-32" value="Nutrient Solution Container" style="rounded=0;whiteSpace=wrap;html=1;fillColor=#ffcc99;strokeColor=#36393d;" parent="1" vertex="1">
          <mxGeometry x="-1999.5" y="794" width="166.5" height="80.5" as="geometry" />
        </mxCell>
        <mxCell id="YafXo0t1VoJHXmda4DZ2-33" value="Dosing System" style="rounded=1;whiteSpace=wrap;html=1;fillColor=#f8cecc;strokeColor=#b85450;" parent="1" vertex="1">
          <mxGeometry x="-1775" y="809.25" width="89" height="50" as="geometry" />
        </mxCell>
        <mxCell id="YafXo0t1VoJHXmda4DZ2-35" value="pH Up" style="rounded=1;whiteSpace=wrap;html=1;" parent="1" vertex="1">
          <mxGeometry x="-1624" y="862.5" width="60" height="30" as="geometry" />
        </mxCell>
        <mxCell id="YafXo0t1VoJHXmda4DZ2-36" value="pH sensor" style="rounded=1;whiteSpace=wrap;html=1;fillColor=#fff2cc;strokeColor=#d6b656;" parent="1" vertex="1">
          <mxGeometry x="-1865" y="927.5" width="60" height="30" as="geometry" />
        </mxCell>
        <mxCell id="YafXo0t1VoJHXmda4DZ2-37" value="Water Pump" style="rounded=1;whiteSpace=wrap;html=1;fillColor=#f8cecc;strokeColor=#b85450;" parent="1" vertex="1">
          <mxGeometry x="-2132.5" y="788" width="73" height="45" as="geometry" />
        </mxCell>
        <mxCell id="YafXo0t1VoJHXmda4DZ2-38" value="Air Pump" style="rounded=1;whiteSpace=wrap;html=1;fillColor=#f8cecc;strokeColor=#b85450;" parent="1" vertex="1">
          <mxGeometry x="-2132.5" y="836.5" width="74" height="34" as="geometry" />
        </mxCell>
        <mxCell id="YafXo0t1VoJHXmda4DZ2-39" value="Nutrient Solution A" style="rounded=1;whiteSpace=wrap;html=1;" parent="1" vertex="1">
          <mxGeometry x="-1624" y="733.5" width="60" height="30" as="geometry" />
        </mxCell>
        <mxCell id="YafXo0t1VoJHXmda4DZ2-40" value="Nutrient Solution B" style="rounded=1;whiteSpace=wrap;html=1;" parent="1" vertex="1">
          <mxGeometry x="-1624" y="777.5" width="60" height="30" as="geometry" />
        </mxCell>
        <mxCell id="YafXo0t1VoJHXmda4DZ2-43" value="Electrical Conductivity sensor&amp;nbsp;" style="rounded=1;whiteSpace=wrap;html=1;fillColor=#fff2cc;strokeColor=#d6b656;" parent="1" vertex="1">
          <mxGeometry x="-2045" y="924.75" width="73" height="42.5" as="geometry" />
        </mxCell>
        <mxCell id="YafXo0t1VoJHXmda4DZ2-44" value="" style="endArrow=classic;html=1;rounded=0;fontSize=9;exitX=1;exitY=0.5;exitDx=0;exitDy=0;entryX=-0.007;entryY=0.203;entryDx=0;entryDy=0;entryPerimeter=0;" parent="1" source="YafXo0t1VoJHXmda4DZ2-37" target="YafXo0t1VoJHXmda4DZ2-32" edge="1">
          <mxGeometry width="50" height="50" relative="1" as="geometry">
            <mxPoint x="-1894" y="881.5" as="sourcePoint" />
            <mxPoint x="-1844" y="831.5" as="targetPoint" />
          </mxGeometry>
        </mxCell>
        <mxCell id="YafXo0t1VoJHXmda4DZ2-45" value="" style="endArrow=classic;html=1;rounded=0;fontSize=9;exitX=1;exitY=0.5;exitDx=0;exitDy=0;entryX=0;entryY=0.75;entryDx=0;entryDy=0;" parent="1" source="YafXo0t1VoJHXmda4DZ2-38" target="YafXo0t1VoJHXmda4DZ2-32" edge="1">
          <mxGeometry width="50" height="50" relative="1" as="geometry">
            <mxPoint x="-1894" y="881.5" as="sourcePoint" />
            <mxPoint x="-1844" y="831.5" as="targetPoint" />
          </mxGeometry>
        </mxCell>
        <mxCell id="YafXo0t1VoJHXmda4DZ2-46" value="" style="endArrow=classic;html=1;rounded=0;fontSize=9;exitX=0;exitY=0.5;exitDx=0;exitDy=0;entryX=1;entryY=0.5;entryDx=0;entryDy=0;" parent="1" source="YafXo0t1VoJHXmda4DZ2-33" target="YafXo0t1VoJHXmda4DZ2-32" edge="1">
          <mxGeometry width="50" height="50" relative="1" as="geometry">
            <mxPoint x="-1894" y="881.5" as="sourcePoint" />
            <mxPoint x="-1814" y="806.5" as="targetPoint" />
          </mxGeometry>
        </mxCell>
        <mxCell id="YafXo0t1VoJHXmda4DZ2-47" value="" style="endArrow=classic;html=1;rounded=0;fontSize=9;exitX=0.25;exitY=1;exitDx=0;exitDy=0;entryX=0.362;entryY=-0.009;entryDx=0;entryDy=0;entryPerimeter=0;" parent="1" source="YafXo0t1VoJHXmda4DZ2-32" target="YafXo0t1VoJHXmda4DZ2-43" edge="1">
          <mxGeometry width="50" height="50" relative="1" as="geometry">
            <mxPoint x="-1976.5" y="891.5" as="sourcePoint" />
            <mxPoint x="-1894" y="891.5" as="targetPoint" />
          </mxGeometry>
        </mxCell>
        <mxCell id="YafXo0t1VoJHXmda4DZ2-48" value="" style="endArrow=classic;html=1;rounded=0;fontSize=9;exitX=0.75;exitY=1;exitDx=0;exitDy=0;entryX=0.465;entryY=-0.016;entryDx=0;entryDy=0;entryPerimeter=0;" parent="1" source="YafXo0t1VoJHXmda4DZ2-32" target="YafXo0t1VoJHXmda4DZ2-36" edge="1">
          <mxGeometry width="50" height="50" relative="1" as="geometry">
            <mxPoint x="-1864" y="931.5" as="sourcePoint" />
            <mxPoint x="-1814" y="881.5" as="targetPoint" />
          </mxGeometry>
        </mxCell>
        <mxCell id="YafXo0t1VoJHXmda4DZ2-59" value="" style="endArrow=classic;html=1;rounded=0;entryX=0.5;entryY=1;entryDx=0;entryDy=0;exitX=0.168;exitY=-0.001;exitDx=0;exitDy=0;exitPerimeter=0;" parent="1" source="YafXo0t1VoJHXmda4DZ2-3" target="YafXo0t1VoJHXmda4DZ2-57" edge="1">
          <mxGeometry width="50" height="50" relative="1" as="geometry">
            <mxPoint x="-1975" y="363" as="sourcePoint" />
            <mxPoint x="-2092" y="282" as="targetPoint" />
          </mxGeometry>
        </mxCell>
        <mxCell id="YafXo0t1VoJHXmda4DZ2-60" value="" style="endArrow=classic;html=1;rounded=0;entryX=0.5;entryY=1;entryDx=0;entryDy=0;exitX=0.841;exitY=-0.001;exitDx=0;exitDy=0;exitPerimeter=0;" parent="1" source="YafXo0t1VoJHXmda4DZ2-3" target="YafXo0t1VoJHXmda4DZ2-58" edge="1">
          <mxGeometry width="50" height="50" relative="1" as="geometry">
            <mxPoint x="-1858" y="347" as="sourcePoint" />
            <mxPoint x="-1771" y="327" as="targetPoint" />
          </mxGeometry>
        </mxCell>
        <mxCell id="YafXo0t1VoJHXmda4DZ2-61" value="Water Level sensor" style="rounded=1;whiteSpace=wrap;html=1;fillColor=#fff2cc;strokeColor=#d6b656;" parent="1" vertex="1">
          <mxGeometry x="-1909" y="718" width="68" height="29" as="geometry" />
        </mxCell>
        <mxCell id="YafXo0t1VoJHXmda4DZ2-62" value="&lt;span style=&quot;font-size: 12px;&quot;&gt;Thermoelectric Cooler&lt;/span&gt;" style="rounded=1;whiteSpace=wrap;html=1;fillColor=#f8cecc;strokeColor=#b85450;" parent="1" vertex="1">
          <mxGeometry x="-2003" y="717" width="90" height="30" as="geometry" />
        </mxCell>
        <mxCell id="YafXo0t1VoJHXmda4DZ2-64" value="" style="endArrow=classic;html=1;rounded=0;exitX=0.5;exitY=1;exitDx=0;exitDy=0;entryX=0.25;entryY=0;entryDx=0;entryDy=0;" parent="1" source="YafXo0t1VoJHXmda4DZ2-62" target="YafXo0t1VoJHXmda4DZ2-32" edge="1">
          <mxGeometry width="50" height="50" relative="1" as="geometry">
            <mxPoint x="-1768" y="852.5" as="sourcePoint" />
            <mxPoint x="-1818" y="902.5" as="targetPoint" />
          </mxGeometry>
        </mxCell>
        <mxCell id="YafXo0t1VoJHXmda4DZ2-66" value="Temperature sensor" style="rounded=1;whiteSpace=wrap;html=1;fillColor=#fff2cc;strokeColor=#d6b656;" parent="1" vertex="1">
          <mxGeometry x="-1953.5" y="927.5" width="75" height="30" as="geometry" />
        </mxCell>
        <mxCell id="YafXo0t1VoJHXmda4DZ2-74" value="pH Down" style="rounded=1;whiteSpace=wrap;html=1;" parent="1" vertex="1">
          <mxGeometry x="-1622" y="903.5" width="60" height="30" as="geometry" />
        </mxCell>
        <mxCell id="z80TZEQ2g9AeHYG9c_JE-1" value="" style="rounded=0;whiteSpace=wrap;html=1;fillColor=#ffcc99;strokeColor=#36393d;" parent="1" vertex="1">
          <mxGeometry x="-3366" y="156" width="746" height="101" as="geometry" />
        </mxCell>
        <mxCell id="z80TZEQ2g9AeHYG9c_JE-2" value="Electrical Conductivity sensor&amp;nbsp;" style="rounded=1;whiteSpace=wrap;html=1;fillColor=#fff2cc;strokeColor=#d6b656;" parent="1" vertex="1">
          <mxGeometry x="-3359.5" y="178" width="76.5" height="45" as="geometry" />
        </mxCell>
        <mxCell id="z80TZEQ2g9AeHYG9c_JE-3" value="Temperature sensor" style="rounded=1;whiteSpace=wrap;html=1;fillColor=#fff2cc;strokeColor=#d6b656;" parent="1" vertex="1">
          <mxGeometry x="-3271" y="193" width="75" height="30" as="geometry" />
        </mxCell>
        <mxCell id="z80TZEQ2g9AeHYG9c_JE-4" value="pH sensor" style="rounded=1;whiteSpace=wrap;html=1;fillColor=#fff2cc;strokeColor=#d6b656;" parent="1" vertex="1">
          <mxGeometry x="-3181" y="192.5" width="60" height="30" as="geometry" />
        </mxCell>
        <mxCell id="z80TZEQ2g9AeHYG9c_JE-5" value="Water Level sensor" style="rounded=1;whiteSpace=wrap;html=1;fillColor=#fff2cc;strokeColor=#d6b656;" parent="1" vertex="1">
          <mxGeometry x="-3103" y="193.5" width="68" height="29" as="geometry" />
        </mxCell>
        <mxCell id="z80TZEQ2g9AeHYG9c_JE-6" value="Dosing System" style="rounded=1;whiteSpace=wrap;html=1;fillColor=#f8cecc;strokeColor=#b85450;" parent="1" vertex="1">
          <mxGeometry x="-3006.5" y="192" width="105" height="31" as="geometry" />
        </mxCell>
        <mxCell id="z80TZEQ2g9AeHYG9c_JE-7" value="&lt;span style=&quot;font-size: 12px;&quot;&gt;Thermoelectric Cooler&lt;/span&gt;" style="rounded=1;whiteSpace=wrap;html=1;fillColor=#f8cecc;strokeColor=#b85450;" parent="1" vertex="1">
          <mxGeometry x="-2863" y="193" width="90" height="30" as="geometry" />
        </mxCell>
        <mxCell id="z80TZEQ2g9AeHYG9c_JE-8" value="Water Pump" style="rounded=1;whiteSpace=wrap;html=1;fillColor=#f8cecc;strokeColor=#b85450;" parent="1" vertex="1">
          <mxGeometry x="-2705.5" y="184" width="73" height="45" as="geometry" />
        </mxCell>
        <mxCell id="z80TZEQ2g9AeHYG9c_JE-10" value="" style="rounded=0;whiteSpace=wrap;html=1;fillColor=#ffcc99;strokeColor=#36393d;" parent="1" vertex="1">
          <mxGeometry x="-3365" y="402" width="746" height="94" as="geometry" />
        </mxCell>
        <mxCell id="z80TZEQ2g9AeHYG9c_JE-11" value="Temperature sensor" style="rounded=1;whiteSpace=wrap;html=1;fillColor=#fff2cc;strokeColor=#d6b656;" parent="1" vertex="1">
          <mxGeometry x="-3271" y="427" width="75" height="30" as="geometry" />
        </mxCell>
        <mxCell id="z80TZEQ2g9AeHYG9c_JE-12" value="Humidity sensor" style="rounded=1;whiteSpace=wrap;html=1;fillColor=#fff2cc;strokeColor=#d6b656;" parent="1" vertex="1">
          <mxGeometry x="-3183" y="427" width="75" height="30" as="geometry" />
        </mxCell>
        <mxCell id="z80TZEQ2g9AeHYG9c_JE-13" value="Camera" style="rounded=1;whiteSpace=wrap;html=1;fillColor=#fff2cc;strokeColor=#d6b656;" parent="1" vertex="1">
          <mxGeometry x="-2699" y="428" width="60" height="20" as="geometry" />
        </mxCell>
        <mxCell id="z80TZEQ2g9AeHYG9c_JE-14" value="CO2 sensor" style="rounded=1;whiteSpace=wrap;html=1;fillColor=#fff2cc;strokeColor=#d6b656;" parent="1" vertex="1">
          <mxGeometry x="-3358" y="427" width="75" height="30" as="geometry" />
        </mxCell>
        <mxCell id="z80TZEQ2g9AeHYG9c_JE-15" value="Light Intensity sensor" style="rounded=1;whiteSpace=wrap;html=1;fillColor=#fff2cc;strokeColor=#d6b656;" parent="1" vertex="1">
          <mxGeometry x="-3094" y="427" width="80" height="30" as="geometry" />
        </mxCell>
        <mxCell id="z80TZEQ2g9AeHYG9c_JE-16" value="Humidifier + Dehumidifier" style="rounded=1;whiteSpace=wrap;html=1;fillColor=#f8cecc;strokeColor=#b85450;" parent="1" vertex="1">
          <mxGeometry x="-2798" y="427" width="90" height="30" as="geometry" />
        </mxCell>
        <mxCell id="z80TZEQ2g9AeHYG9c_JE-17" value="&lt;span style=&quot;font-size: 12px;&quot;&gt;Thermoelectric Cooler&lt;/span&gt;" style="rounded=1;whiteSpace=wrap;html=1;fillColor=#f8cecc;strokeColor=#b85450;" parent="1" vertex="1">
          <mxGeometry x="-2999" y="428" width="90" height="30" as="geometry" />
        </mxCell>
        <mxCell id="z80TZEQ2g9AeHYG9c_JE-18" value="&lt;span style=&quot;font-size: 12px;&quot;&gt;LED Array&lt;/span&gt;" style="rounded=1;whiteSpace=wrap;html=1;fillColor=#f8cecc;strokeColor=#b85450;" parent="1" vertex="1">
          <mxGeometry x="-2897" y="427" width="90" height="30" as="geometry" />
        </mxCell>
        <mxCell id="z80TZEQ2g9AeHYG9c_JE-19" value="Arduino Nano" style="rounded=1;whiteSpace=wrap;html=1;fillColor=#d0cee2;strokeColor=#56517e;" parent="1" vertex="1">
          <mxGeometry x="-3248" y="296" width="120" height="60" as="geometry" />
        </mxCell>
        <mxCell id="z80TZEQ2g9AeHYG9c_JE-20" value="Arduino Mega" style="rounded=1;whiteSpace=wrap;html=1;fillColor=#d0cee2;strokeColor=#56517e;" parent="1" vertex="1">
          <mxGeometry x="-3080" y="296" width="120" height="60" as="geometry" />
        </mxCell>
        <mxCell id="z80TZEQ2g9AeHYG9c_JE-21" value="" style="endArrow=classic;html=1;rounded=0;exitX=0.5;exitY=1;exitDx=0;exitDy=0;entryX=0.024;entryY=0.037;entryDx=0;entryDy=0;entryPerimeter=0;" parent="1" source="z80TZEQ2g9AeHYG9c_JE-2" target="z80TZEQ2g9AeHYG9c_JE-19" edge="1">
          <mxGeometry width="50" height="50" relative="1" as="geometry">
            <mxPoint x="-3034" y="319" as="sourcePoint" />
            <mxPoint x="-2984" y="269" as="targetPoint" />
          </mxGeometry>
        </mxCell>
        <mxCell id="z80TZEQ2g9AeHYG9c_JE-22" value="" style="endArrow=classic;html=1;rounded=0;exitX=0.5;exitY=1;exitDx=0;exitDy=0;entryX=0.339;entryY=-0.004;entryDx=0;entryDy=0;entryPerimeter=0;" parent="1" source="z80TZEQ2g9AeHYG9c_JE-3" target="z80TZEQ2g9AeHYG9c_JE-19" edge="1">
          <mxGeometry width="50" height="50" relative="1" as="geometry">
            <mxPoint x="-3034" y="319" as="sourcePoint" />
            <mxPoint x="-3217" y="288" as="targetPoint" />
          </mxGeometry>
        </mxCell>
        <mxCell id="z80TZEQ2g9AeHYG9c_JE-23" value="" style="endArrow=classic;html=1;rounded=0;exitX=0.5;exitY=1;exitDx=0;exitDy=0;entryX=0.75;entryY=0;entryDx=0;entryDy=0;" parent="1" source="z80TZEQ2g9AeHYG9c_JE-4" target="z80TZEQ2g9AeHYG9c_JE-19" edge="1">
          <mxGeometry width="50" height="50" relative="1" as="geometry">
            <mxPoint x="-3034" y="319" as="sourcePoint" />
            <mxPoint x="-2984" y="269" as="targetPoint" />
          </mxGeometry>
        </mxCell>
        <mxCell id="z80TZEQ2g9AeHYG9c_JE-24" value="" style="endArrow=classic;html=1;rounded=0;exitX=0.5;exitY=1;exitDx=0;exitDy=0;entryX=0.978;entryY=0.045;entryDx=0;entryDy=0;entryPerimeter=0;" parent="1" source="z80TZEQ2g9AeHYG9c_JE-5" target="z80TZEQ2g9AeHYG9c_JE-19" edge="1">
          <mxGeometry width="50" height="50" relative="1" as="geometry">
            <mxPoint x="-3034" y="319" as="sourcePoint" />
            <mxPoint x="-2984" y="269" as="targetPoint" />
          </mxGeometry>
        </mxCell>
        <mxCell id="z80TZEQ2g9AeHYG9c_JE-25" value="" style="endArrow=classic;html=1;rounded=0;exitX=0.5;exitY=0;exitDx=0;exitDy=0;entryX=0.051;entryY=0.985;entryDx=0;entryDy=0;entryPerimeter=0;" parent="1" source="z80TZEQ2g9AeHYG9c_JE-14" target="z80TZEQ2g9AeHYG9c_JE-19" edge="1">
          <mxGeometry width="50" height="50" relative="1" as="geometry">
            <mxPoint x="-3179" y="364" as="sourcePoint" />
            <mxPoint x="-3129" y="314" as="targetPoint" />
          </mxGeometry>
        </mxCell>
        <mxCell id="z80TZEQ2g9AeHYG9c_JE-26" value="" style="endArrow=classic;html=1;rounded=0;exitX=0.5;exitY=0;exitDx=0;exitDy=0;entryX=0.357;entryY=0.999;entryDx=0;entryDy=0;entryPerimeter=0;" parent="1" source="z80TZEQ2g9AeHYG9c_JE-11" target="z80TZEQ2g9AeHYG9c_JE-19" edge="1">
          <mxGeometry width="50" height="50" relative="1" as="geometry">
            <mxPoint x="-3179" y="364" as="sourcePoint" />
            <mxPoint x="-3129" y="314" as="targetPoint" />
          </mxGeometry>
        </mxCell>
        <mxCell id="z80TZEQ2g9AeHYG9c_JE-27" value="" style="endArrow=classic;html=1;rounded=0;exitX=0.5;exitY=0;exitDx=0;exitDy=0;entryX=0.75;entryY=1;entryDx=0;entryDy=0;" parent="1" source="z80TZEQ2g9AeHYG9c_JE-12" target="z80TZEQ2g9AeHYG9c_JE-19" edge="1">
          <mxGeometry width="50" height="50" relative="1" as="geometry">
            <mxPoint x="-3223" y="437" as="sourcePoint" />
            <mxPoint x="-3205" y="360" as="targetPoint" />
          </mxGeometry>
        </mxCell>
        <mxCell id="z80TZEQ2g9AeHYG9c_JE-28" value="" style="endArrow=classic;html=1;rounded=0;exitX=0.5;exitY=0;exitDx=0;exitDy=0;entryX=0.984;entryY=0.95;entryDx=0;entryDy=0;entryPerimeter=0;" parent="1" source="z80TZEQ2g9AeHYG9c_JE-15" target="z80TZEQ2g9AeHYG9c_JE-19" edge="1">
          <mxGeometry width="50" height="50" relative="1" as="geometry">
            <mxPoint x="-3180" y="364" as="sourcePoint" />
            <mxPoint x="-3130" y="314" as="targetPoint" />
          </mxGeometry>
        </mxCell>
        <mxCell id="z80TZEQ2g9AeHYG9c_JE-29" value="" style="endArrow=classic;html=1;rounded=0;exitX=1;exitY=0.5;exitDx=0;exitDy=0;entryX=0;entryY=0.5;entryDx=0;entryDy=0;" parent="1" source="z80TZEQ2g9AeHYG9c_JE-19" target="z80TZEQ2g9AeHYG9c_JE-20" edge="1">
          <mxGeometry width="50" height="50" relative="1" as="geometry">
            <mxPoint x="-3048" y="337" as="sourcePoint" />
            <mxPoint x="-2998" y="287" as="targetPoint" />
          </mxGeometry>
        </mxCell>
        <mxCell id="z80TZEQ2g9AeHYG9c_JE-30" value="" style="endArrow=classic;html=1;rounded=0;entryX=0.5;entryY=1;entryDx=0;entryDy=0;exitX=0.028;exitY=0.038;exitDx=0;exitDy=0;exitPerimeter=0;" parent="1" source="z80TZEQ2g9AeHYG9c_JE-20" target="z80TZEQ2g9AeHYG9c_JE-6" edge="1">
          <mxGeometry width="50" height="50" relative="1" as="geometry">
            <mxPoint x="-3048" y="337" as="sourcePoint" />
            <mxPoint x="-2998" y="287" as="targetPoint" />
          </mxGeometry>
        </mxCell>
        <mxCell id="z80TZEQ2g9AeHYG9c_JE-31" value="" style="endArrow=classic;html=1;rounded=0;exitX=0.318;exitY=-0.005;exitDx=0;exitDy=0;exitPerimeter=0;entryX=0.5;entryY=1;entryDx=0;entryDy=0;" parent="1" source="z80TZEQ2g9AeHYG9c_JE-20" target="z80TZEQ2g9AeHYG9c_JE-7" edge="1">
          <mxGeometry width="50" height="50" relative="1" as="geometry">
            <mxPoint x="-2994" y="292" as="sourcePoint" />
            <mxPoint x="-2944" y="242" as="targetPoint" />
          </mxGeometry>
        </mxCell>
        <mxCell id="z80TZEQ2g9AeHYG9c_JE-32" value="" style="endArrow=classic;html=1;rounded=0;exitX=0.75;exitY=0;exitDx=0;exitDy=0;entryX=0.5;entryY=1;entryDx=0;entryDy=0;" parent="1" source="z80TZEQ2g9AeHYG9c_JE-20" target="z80TZEQ2g9AeHYG9c_JE-8" edge="1">
          <mxGeometry width="50" height="50" relative="1" as="geometry">
            <mxPoint x="-3045" y="301" as="sourcePoint" />
            <mxPoint x="-2799" y="271" as="targetPoint" />
          </mxGeometry>
        </mxCell>
        <mxCell id="z80TZEQ2g9AeHYG9c_JE-34" value="" style="endArrow=classic;html=1;rounded=0;exitX=0.045;exitY=0.986;exitDx=0;exitDy=0;exitPerimeter=0;entryX=0.5;entryY=0;entryDx=0;entryDy=0;" parent="1" source="z80TZEQ2g9AeHYG9c_JE-20" target="z80TZEQ2g9AeHYG9c_JE-17" edge="1">
          <mxGeometry width="50" height="50" relative="1" as="geometry">
            <mxPoint x="-2948" y="330" as="sourcePoint" />
            <mxPoint x="-2898" y="280" as="targetPoint" />
          </mxGeometry>
        </mxCell>
        <mxCell id="z80TZEQ2g9AeHYG9c_JE-35" value="" style="endArrow=classic;html=1;rounded=0;entryX=0.5;entryY=0;entryDx=0;entryDy=0;exitX=0.5;exitY=1;exitDx=0;exitDy=0;" parent="1" source="z80TZEQ2g9AeHYG9c_JE-20" target="z80TZEQ2g9AeHYG9c_JE-18" edge="1">
          <mxGeometry width="50" height="50" relative="1" as="geometry">
            <mxPoint x="-2949" y="355" as="sourcePoint" />
            <mxPoint x="-2844" y="336" as="targetPoint" />
          </mxGeometry>
        </mxCell>
        <mxCell id="z80TZEQ2g9AeHYG9c_JE-36" value="" style="endArrow=classic;html=1;rounded=0;exitX=0.972;exitY=0.959;exitDx=0;exitDy=0;exitPerimeter=0;entryX=0.5;entryY=0;entryDx=0;entryDy=0;" parent="1" source="z80TZEQ2g9AeHYG9c_JE-20" target="z80TZEQ2g9AeHYG9c_JE-16" edge="1">
          <mxGeometry width="50" height="50" relative="1" as="geometry">
            <mxPoint x="-2862" y="384" as="sourcePoint" />
            <mxPoint x="-2812" y="334" as="targetPoint" />
          </mxGeometry>
        </mxCell>
        <mxCell id="z80TZEQ2g9AeHYG9c_JE-37" value="" style="rounded=1;whiteSpace=wrap;html=1;fillColor=#d0cee2;strokeColor=#56517e;" parent="1" vertex="1">
          <mxGeometry x="-2914.5" y="289.5" width="182" height="73" as="geometry" />
        </mxCell>
        <mxCell id="z80TZEQ2g9AeHYG9c_JE-38" value="" style="endArrow=classic;startArrow=classic;html=1;rounded=0;entryX=0;entryY=0.5;entryDx=0;entryDy=0;exitX=1;exitY=0.5;exitDx=0;exitDy=0;" parent="1" source="z80TZEQ2g9AeHYG9c_JE-20" target="z80TZEQ2g9AeHYG9c_JE-37" edge="1">
          <mxGeometry width="50" height="50" relative="1" as="geometry">
            <mxPoint x="-2915" y="312" as="sourcePoint" />
            <mxPoint x="-2865" y="262" as="targetPoint" />
          </mxGeometry>
        </mxCell>
        <mxCell id="z80TZEQ2g9AeHYG9c_JE-39" value="Database" style="shape=datastore;whiteSpace=wrap;html=1;fillColor=#d5e8d4;strokeColor=#82b366;" parent="1" vertex="1">
          <mxGeometry x="-2687.5" y="275" width="52" height="42" as="geometry" />
        </mxCell>
        <mxCell id="z80TZEQ2g9AeHYG9c_JE-40" value="" style="endArrow=classic;html=1;rounded=0;exitX=0.5;exitY=0;exitDx=0;exitDy=0;entryX=0.5;entryY=1;entryDx=0;entryDy=0;" parent="1" source="z80TZEQ2g9AeHYG9c_JE-13" target="z80TZEQ2g9AeHYG9c_JE-37" edge="1">
          <mxGeometry width="50" height="50" relative="1" as="geometry">
            <mxPoint x="-3013" y="333" as="sourcePoint" />
            <mxPoint x="-2963" y="283" as="targetPoint" />
          </mxGeometry>
        </mxCell>
        <mxCell id="z80TZEQ2g9AeHYG9c_JE-42" value="&lt;div style=&quot;text-align: justify;&quot;&gt;&lt;br&gt;&lt;/div&gt;" style="rounded=0;whiteSpace=wrap;html=1;align=center;" parent="1" vertex="1">
          <mxGeometry x="-2905" y="334" width="74.5" height="19" as="geometry" />
        </mxCell>
        <mxCell id="z80TZEQ2g9AeHYG9c_JE-43" value="&lt;font style=&quot;font-size: 9px;&quot;&gt;Image Processing&lt;/font&gt;" style="text;html=1;strokeColor=none;fillColor=none;align=center;verticalAlign=middle;whiteSpace=wrap;rounded=0;" parent="1" vertex="1">
          <mxGeometry x="-2907.44" y="325" width="79.37" height="31" as="geometry" />
        </mxCell>
        <mxCell id="z80TZEQ2g9AeHYG9c_JE-44" value="" style="rounded=0;whiteSpace=wrap;html=1;" parent="1" vertex="1">
          <mxGeometry x="-2816" y="334" width="66" height="19" as="geometry" />
        </mxCell>
        <mxCell id="z80TZEQ2g9AeHYG9c_JE-45" value="" style="rounded=0;whiteSpace=wrap;html=1;" parent="1" vertex="1">
          <mxGeometry x="-2860" y="311" width="76.5" height="18" as="geometry" />
        </mxCell>
        <mxCell id="z80TZEQ2g9AeHYG9c_JE-46" value="&lt;font style=&quot;font-size: 9px;&quot;&gt;Model Training&lt;/font&gt;" style="text;html=1;strokeColor=none;fillColor=none;align=center;verticalAlign=middle;whiteSpace=wrap;rounded=0;" parent="1" vertex="1">
          <mxGeometry x="-2855" y="305" width="66.5" height="29" as="geometry" />
        </mxCell>
        <mxCell id="z80TZEQ2g9AeHYG9c_JE-47" value="&lt;font style=&quot;font-size: 9px;&quot;&gt;Server Hosting&lt;/font&gt;" style="text;html=1;strokeColor=none;fillColor=none;align=center;verticalAlign=middle;whiteSpace=wrap;rounded=0;" parent="1" vertex="1">
          <mxGeometry x="-2816" y="326.5" width="68.25" height="28" as="geometry" />
        </mxCell>
        <mxCell id="z80TZEQ2g9AeHYG9c_JE-48" value="Raspberry Pi 3" style="text;html=1;strokeColor=none;fillColor=none;align=center;verticalAlign=middle;whiteSpace=wrap;rounded=0;" parent="1" vertex="1">
          <mxGeometry x="-2870.5" y="287" width="94" height="30" as="geometry" />
        </mxCell>
        <mxCell id="z80TZEQ2g9AeHYG9c_JE-49" value="" style="shape=flexArrow;endArrow=classic;html=1;rounded=0;entryX=0.049;entryY=1.001;entryDx=0;entryDy=0;entryPerimeter=0;exitX=0.025;exitY=0.004;exitDx=0;exitDy=0;exitPerimeter=0;fillColor=#b1ddf0;strokeColor=#10739e;" parent="1" source="z80TZEQ2g9AeHYG9c_JE-10" edge="1">
          <mxGeometry width="50" height="50" relative="1" as="geometry">
            <mxPoint x="-3348.636" y="402.3299999999999" as="sourcePoint" />
            <mxPoint x="-3346.3729999999996" y="257.0039999999997" as="targetPoint" />
          </mxGeometry>
        </mxCell>
        <mxCell id="z80TZEQ2g9AeHYG9c_JE-50" value="" style="shape=flexArrow;endArrow=classic;html=1;rounded=0;entryX=0.06;entryY=-0.001;entryDx=0;entryDy=0;entryPerimeter=0;exitX=0.062;exitY=1;exitDx=0;exitDy=0;exitPerimeter=0;fillColor=#b1ddf0;strokeColor=#10739e;" parent="1" source="z80TZEQ2g9AeHYG9c_JE-1" target="z80TZEQ2g9AeHYG9c_JE-10" edge="1">
          <mxGeometry width="50" height="50" relative="1" as="geometry">
            <mxPoint x="-3320" y="258" as="sourcePoint" />
            <mxPoint x="-3314" y="348" as="targetPoint" />
          </mxGeometry>
        </mxCell>
        <mxCell id="z80TZEQ2g9AeHYG9c_JE-51" value="Nutrient Solution Flow" style="text;html=1;strokeColor=none;fillColor=none;align=center;verticalAlign=middle;whiteSpace=wrap;rounded=0;" parent="1" vertex="1">
          <mxGeometry x="-3320.5" y="298" width="60" height="74" as="geometry" />
        </mxCell>
        <mxCell id="z80TZEQ2g9AeHYG9c_JE-52" value="Nutrient Solution Container Module" style="text;html=1;strokeColor=none;fillColor=none;align=center;verticalAlign=middle;whiteSpace=wrap;rounded=0;" parent="1" vertex="1">
          <mxGeometry x="-3111" y="156" width="196.5" height="30" as="geometry" />
        </mxCell>
        <mxCell id="z80TZEQ2g9AeHYG9c_JE-53" value="Growth Module" style="text;html=1;strokeColor=none;fillColor=none;align=center;verticalAlign=middle;whiteSpace=wrap;rounded=0;" parent="1" vertex="1">
          <mxGeometry x="-3113.25" y="466" width="196.5" height="30" as="geometry" />
        </mxCell>
        <mxCell id="z80TZEQ2g9AeHYG9c_JE-54" value="Distilled Water" style="rounded=1;whiteSpace=wrap;html=1;" parent="1" vertex="1">
          <mxGeometry x="-1624" y="820" width="60" height="30" as="geometry" />
        </mxCell>
        <mxCell id="z80TZEQ2g9AeHYG9c_JE-55" value="" style="endArrow=classic;html=1;rounded=0;exitX=0;exitY=0.5;exitDx=0;exitDy=0;entryX=1;entryY=0.5;entryDx=0;entryDy=0;" parent="1" source="z80TZEQ2g9AeHYG9c_JE-54" target="YafXo0t1VoJHXmda4DZ2-33" edge="1">
          <mxGeometry width="50" height="50" relative="1" as="geometry">
            <mxPoint x="-1750" y="861" as="sourcePoint" />
            <mxPoint x="-1700" y="811" as="targetPoint" />
          </mxGeometry>
        </mxCell>
        <mxCell id="z80TZEQ2g9AeHYG9c_JE-56" value="" style="endArrow=classic;html=1;rounded=0;exitX=0;exitY=0.5;exitDx=0;exitDy=0;entryX=1;entryY=0.75;entryDx=0;entryDy=0;" parent="1" source="YafXo0t1VoJHXmda4DZ2-35" target="YafXo0t1VoJHXmda4DZ2-33" edge="1">
          <mxGeometry width="50" height="50" relative="1" as="geometry">
            <mxPoint x="-1668" y="872" as="sourcePoint" />
            <mxPoint x="-1618" y="822" as="targetPoint" />
          </mxGeometry>
        </mxCell>
        <mxCell id="z80TZEQ2g9AeHYG9c_JE-57" value="" style="endArrow=classic;html=1;rounded=0;exitX=0;exitY=0.5;exitDx=0;exitDy=0;entryX=1;entryY=1;entryDx=0;entryDy=0;" parent="1" source="YafXo0t1VoJHXmda4DZ2-74" target="YafXo0t1VoJHXmda4DZ2-33" edge="1">
          <mxGeometry width="50" height="50" relative="1" as="geometry">
            <mxPoint x="-1668" y="872" as="sourcePoint" />
            <mxPoint x="-1618" y="822" as="targetPoint" />
          </mxGeometry>
        </mxCell>
        <mxCell id="z80TZEQ2g9AeHYG9c_JE-58" value="" style="endArrow=classic;html=1;rounded=0;exitX=0;exitY=0.5;exitDx=0;exitDy=0;entryX=1;entryY=0.25;entryDx=0;entryDy=0;" parent="1" source="YafXo0t1VoJHXmda4DZ2-40" target="YafXo0t1VoJHXmda4DZ2-33" edge="1">
          <mxGeometry width="50" height="50" relative="1" as="geometry">
            <mxPoint x="-1668" y="872" as="sourcePoint" />
            <mxPoint x="-1618" y="822" as="targetPoint" />
          </mxGeometry>
        </mxCell>
        <mxCell id="z80TZEQ2g9AeHYG9c_JE-59" value="" style="endArrow=classic;html=1;rounded=0;exitX=0;exitY=0.5;exitDx=0;exitDy=0;entryX=1;entryY=0;entryDx=0;entryDy=0;" parent="1" source="YafXo0t1VoJHXmda4DZ2-39" target="YafXo0t1VoJHXmda4DZ2-33" edge="1">
          <mxGeometry width="50" height="50" relative="1" as="geometry">
            <mxPoint x="-1668" y="872" as="sourcePoint" />
            <mxPoint x="-1618" y="822" as="targetPoint" />
          </mxGeometry>
        </mxCell>
        <mxCell id="z80TZEQ2g9AeHYG9c_JE-60" value="" style="endArrow=classic;html=1;rounded=0;exitX=0.528;exitY=-0.002;exitDx=0;exitDy=0;exitPerimeter=0;entryX=0.25;entryY=1;entryDx=0;entryDy=0;" parent="1" source="YafXo0t1VoJHXmda4DZ2-18" target="YafXo0t1VoJHXmda4DZ2-3" edge="1">
          <mxGeometry width="50" height="50" relative="1" as="geometry">
            <mxPoint x="-1911" y="481" as="sourcePoint" />
            <mxPoint x="-1861" y="431" as="targetPoint" />
          </mxGeometry>
        </mxCell>
        <mxCell id="z80TZEQ2g9AeHYG9c_JE-62" value="Solenoid Valve (to regulate air pressure)" style="rounded=1;whiteSpace=wrap;html=1;fillColor=#f8cecc;strokeColor=#b85450;" parent="1" vertex="1">
          <mxGeometry x="-1923.25" y="484.5" width="95.5" height="53" as="geometry" />
        </mxCell>
        <mxCell id="z80TZEQ2g9AeHYG9c_JE-63" value="" style="endArrow=classic;html=1;rounded=0;exitX=0.5;exitY=0;exitDx=0;exitDy=0;entryX=0.75;entryY=1;entryDx=0;entryDy=0;" parent="1" source="z80TZEQ2g9AeHYG9c_JE-62" target="YafXo0t1VoJHXmda4DZ2-3" edge="1">
          <mxGeometry width="50" height="50" relative="1" as="geometry">
            <mxPoint x="-1876" y="523" as="sourcePoint" />
            <mxPoint x="-1826" y="473" as="targetPoint" />
          </mxGeometry>
        </mxCell>
        <mxCell id="z80TZEQ2g9AeHYG9c_JE-64" value="" style="group" parent="1" vertex="1" connectable="0">
          <mxGeometry x="-2111.5" y="276" width="371" height="30" as="geometry" />
        </mxCell>
        <mxCell id="YafXo0t1VoJHXmda4DZ2-14" value="Temperature sensor" style="rounded=1;whiteSpace=wrap;html=1;fillColor=#fff2cc;strokeColor=#d6b656;" parent="z80TZEQ2g9AeHYG9c_JE-64" vertex="1">
          <mxGeometry x="97" width="75" height="30" as="geometry" />
        </mxCell>
        <mxCell id="YafXo0t1VoJHXmda4DZ2-15" value="Humidity sensor" style="rounded=1;whiteSpace=wrap;html=1;fillColor=#fff2cc;strokeColor=#d6b656;" parent="z80TZEQ2g9AeHYG9c_JE-64" vertex="1">
          <mxGeometry x="198" width="75" height="30" as="geometry" />
        </mxCell>
        <mxCell id="YafXo0t1VoJHXmda4DZ2-57" value="Carbon Dioxide sensor" style="rounded=1;whiteSpace=wrap;html=1;fillColor=#fff2cc;strokeColor=#d6b656;" parent="z80TZEQ2g9AeHYG9c_JE-64" vertex="1">
          <mxGeometry y="-6" width="87" height="36" as="geometry" />
        </mxCell>
        <mxCell id="YafXo0t1VoJHXmda4DZ2-58" value="Light Intensity sensor" style="rounded=1;whiteSpace=wrap;html=1;fillColor=#fff2cc;strokeColor=#d6b656;" parent="z80TZEQ2g9AeHYG9c_JE-64" vertex="1">
          <mxGeometry x="291" width="80" height="30" as="geometry" />
        </mxCell>
        <mxCell id="z80TZEQ2g9AeHYG9c_JE-65" value="" style="group" parent="1" vertex="1" connectable="0">
          <mxGeometry x="-2156" y="348" width="90" height="100" as="geometry" />
        </mxCell>
        <mxCell id="YafXo0t1VoJHXmda4DZ2-5" value="Humidifier + Dehumidifier" style="rounded=1;whiteSpace=wrap;html=1;fillColor=#f8cecc;strokeColor=#b85450;" parent="z80TZEQ2g9AeHYG9c_JE-65" vertex="1">
          <mxGeometry y="70" width="90" height="30" as="geometry" />
        </mxCell>
        <mxCell id="YafXo0t1VoJHXmda4DZ2-25" value="&lt;span style=&quot;font-size: 12px;&quot;&gt;Thermoelectric Cooler&lt;/span&gt;" style="rounded=1;whiteSpace=wrap;html=1;fillColor=#f8cecc;strokeColor=#b85450;" parent="z80TZEQ2g9AeHYG9c_JE-65" vertex="1">
          <mxGeometry width="90" height="30" as="geometry" />
        </mxCell>
        <mxCell id="YafXo0t1VoJHXmda4DZ2-27" value="&lt;span style=&quot;font-size: 12px;&quot;&gt;LED Array&amp;nbsp;&lt;/span&gt;" style="rounded=1;whiteSpace=wrap;html=1;fillColor=#f8cecc;strokeColor=#b85450;" parent="z80TZEQ2g9AeHYG9c_JE-65" vertex="1">
          <mxGeometry y="35" width="90" height="30" as="geometry" />
        </mxCell>
        <mxCell id="z80TZEQ2g9AeHYG9c_JE-69" value="" style="group" parent="1" vertex="1" connectable="0">
          <mxGeometry x="-3497" y="596" width="1078" height="455" as="geometry" />
        </mxCell>
        <mxCell id="z80TZEQ2g9AeHYG9c_JE-70" value="" style="rounded=0;whiteSpace=wrap;html=1;" parent="z80TZEQ2g9AeHYG9c_JE-69" vertex="1">
          <mxGeometry y="45" width="318" height="408" as="geometry" />
        </mxCell>
        <mxCell id="z80TZEQ2g9AeHYG9c_JE-71" value="&lt;font style=&quot;font-size: 14px;&quot;&gt;Arduino Mega&lt;/font&gt;" style="rounded=1;whiteSpace=wrap;html=1;fontSize=9;fillColor=#d0cee2;strokeColor=#56517e;" parent="z80TZEQ2g9AeHYG9c_JE-69" vertex="1">
          <mxGeometry x="349" y="295" width="120" height="60" as="geometry" />
        </mxCell>
        <mxCell id="z80TZEQ2g9AeHYG9c_JE-72" value="pH sensor&lt;br&gt;Water Level sensor&lt;br&gt;2x Temperature sensor&lt;br&gt;Carbon Dioxide sensor&lt;br&gt;Humidity sensor&lt;br&gt;Light Intensity sensor&lt;br&gt;Electrical Conductivity sensor" style="rounded=0;whiteSpace=wrap;html=1;fontSize=14;fillColor=#ffe6cc;strokeColor=#d79b00;" parent="z80TZEQ2g9AeHYG9c_JE-69" vertex="1">
          <mxGeometry x="49" y="111" width="237" height="139" as="geometry" />
        </mxCell>
        <mxCell id="z80TZEQ2g9AeHYG9c_JE-73" value="2x Thermoelectric Cooler&lt;br&gt;Humidifier and Dehumidifier&lt;br&gt;2x Solenoid Valve&lt;br&gt;Water Pump&lt;br&gt;pH Buffer&lt;br&gt;Air Pump" style="rounded=0;whiteSpace=wrap;html=1;fontSize=14;fillColor=#f8cecc;strokeColor=#b85450;" parent="z80TZEQ2g9AeHYG9c_JE-69" vertex="1">
          <mxGeometry x="58" y="295" width="220" height="130" as="geometry" />
        </mxCell>
        <mxCell id="z80TZEQ2g9AeHYG9c_JE-75" value="&lt;span style=&quot;font-size: 14px;&quot;&gt;Raspberry Pi 3&lt;/span&gt;" style="rounded=1;whiteSpace=wrap;html=1;fontSize=9;fillColor=#d0cee2;strokeColor=#56517e;" parent="z80TZEQ2g9AeHYG9c_JE-69" vertex="1">
          <mxGeometry x="527" y="295" width="120" height="60" as="geometry" />
        </mxCell>
        <mxCell id="z80TZEQ2g9AeHYG9c_JE-76" value="&lt;span style=&quot;font-size: 14px;&quot;&gt;Database&lt;/span&gt;" style="rounded=1;whiteSpace=wrap;html=1;fontSize=9;fillColor=#d5e8d4;strokeColor=#82b366;" parent="z80TZEQ2g9AeHYG9c_JE-69" vertex="1">
          <mxGeometry x="720" y="295" width="120" height="60" as="geometry" />
        </mxCell>
        <mxCell id="z80TZEQ2g9AeHYG9c_JE-78" value="&lt;b&gt;Sensors&lt;/b&gt;" style="text;html=1;strokeColor=none;fillColor=none;align=center;verticalAlign=middle;whiteSpace=wrap;rounded=0;fontSize=14;" parent="z80TZEQ2g9AeHYG9c_JE-69" vertex="1">
          <mxGeometry x="129.5" y="51" width="60" height="30" as="geometry" />
        </mxCell>
        <mxCell id="z80TZEQ2g9AeHYG9c_JE-79" value="&lt;b&gt;Actuators&lt;/b&gt;" style="text;html=1;strokeColor=none;fillColor=none;align=center;verticalAlign=middle;whiteSpace=wrap;rounded=0;fontSize=14;" parent="z80TZEQ2g9AeHYG9c_JE-69" vertex="1">
          <mxGeometry x="129" y="255" width="60" height="30" as="geometry" />
        </mxCell>
        <mxCell id="z80TZEQ2g9AeHYG9c_JE-80" value="" style="endArrow=classic;startArrow=classic;html=1;rounded=0;fontSize=14;entryX=0;entryY=0.5;entryDx=0;entryDy=0;exitX=1;exitY=0.5;exitDx=0;exitDy=0;" parent="z80TZEQ2g9AeHYG9c_JE-69" source="z80TZEQ2g9AeHYG9c_JE-71" target="z80TZEQ2g9AeHYG9c_JE-75" edge="1">
          <mxGeometry width="50" height="50" relative="1" as="geometry">
            <mxPoint x="411" y="326" as="sourcePoint" />
            <mxPoint x="461" y="276" as="targetPoint" />
          </mxGeometry>
        </mxCell>
        <mxCell id="z80TZEQ2g9AeHYG9c_JE-81" value="" style="endArrow=classic;startArrow=classic;html=1;rounded=0;fontSize=14;entryX=0;entryY=0.5;entryDx=0;entryDy=0;exitX=1;exitY=0.5;exitDx=0;exitDy=0;" parent="z80TZEQ2g9AeHYG9c_JE-69" source="z80TZEQ2g9AeHYG9c_JE-75" target="z80TZEQ2g9AeHYG9c_JE-76" edge="1">
          <mxGeometry width="50" height="50" relative="1" as="geometry">
            <mxPoint x="570" y="313" as="sourcePoint" />
            <mxPoint x="620" y="263" as="targetPoint" />
          </mxGeometry>
        </mxCell>
        <mxCell id="z80TZEQ2g9AeHYG9c_JE-84" value="&lt;b&gt;&lt;font style=&quot;font-size: 14px;&quot;&gt;Environment&lt;/font&gt;&lt;/b&gt;" style="text;html=1;align=center;verticalAlign=middle;resizable=0;points=[];autosize=1;strokeColor=none;fillColor=none;" parent="z80TZEQ2g9AeHYG9c_JE-69" vertex="1">
          <mxGeometry x="107" y="16" width="104" height="29" as="geometry" />
        </mxCell>
        <mxCell id="z80TZEQ2g9AeHYG9c_JE-91" value="&lt;font style=&quot;font-size: 14px;&quot;&gt;Arduino Nano&lt;/font&gt;" style="rounded=1;whiteSpace=wrap;html=1;fontSize=9;fillColor=#d0cee2;strokeColor=#56517e;" parent="z80TZEQ2g9AeHYG9c_JE-69" vertex="1">
          <mxGeometry x="349" y="190" width="120" height="60" as="geometry" />
        </mxCell>
        <mxCell id="z80TZEQ2g9AeHYG9c_JE-92" value="" style="endArrow=classic;html=1;rounded=0;exitX=1;exitY=0.25;exitDx=0;exitDy=0;entryX=0.5;entryY=0;entryDx=0;entryDy=0;" parent="z80TZEQ2g9AeHYG9c_JE-69" source="z80TZEQ2g9AeHYG9c_JE-72" target="z80TZEQ2g9AeHYG9c_JE-91" edge="1">
          <mxGeometry width="50" height="50" relative="1" as="geometry">
            <mxPoint x="434" y="238" as="sourcePoint" />
            <mxPoint x="484" y="188" as="targetPoint" />
            <Array as="points">
              <mxPoint x="409" y="146" />
            </Array>
          </mxGeometry>
        </mxCell>
        <mxCell id="z80TZEQ2g9AeHYG9c_JE-94" value="" style="endArrow=classic;html=1;rounded=0;exitX=0.5;exitY=1;exitDx=0;exitDy=0;entryX=1;entryY=0.75;entryDx=0;entryDy=0;" parent="z80TZEQ2g9AeHYG9c_JE-69" source="z80TZEQ2g9AeHYG9c_JE-71" target="z80TZEQ2g9AeHYG9c_JE-73" edge="1">
          <mxGeometry width="50" height="50" relative="1" as="geometry">
            <mxPoint x="323" y="319" as="sourcePoint" />
            <mxPoint x="373" y="269" as="targetPoint" />
            <Array as="points">
              <mxPoint x="409" y="393" />
            </Array>
          </mxGeometry>
        </mxCell>
        <mxCell id="z80TZEQ2g9AeHYG9c_JE-95" value="Camera" style="rounded=0;whiteSpace=wrap;html=1;fillColor=#ffe6cc;strokeColor=#d79b00;" parent="z80TZEQ2g9AeHYG9c_JE-69" vertex="1">
          <mxGeometry x="49" y="81" width="238" height="24" as="geometry" />
        </mxCell>
        <mxCell id="z80TZEQ2g9AeHYG9c_JE-97" value="" style="endArrow=classic;html=1;rounded=0;exitX=0.5;exitY=1;exitDx=0;exitDy=0;entryX=0.5;entryY=0;entryDx=0;entryDy=0;" parent="z80TZEQ2g9AeHYG9c_JE-69" source="z80TZEQ2g9AeHYG9c_JE-91" target="z80TZEQ2g9AeHYG9c_JE-71" edge="1">
          <mxGeometry width="50" height="50" relative="1" as="geometry">
            <mxPoint x="417" y="263" as="sourcePoint" />
            <mxPoint x="467" y="213" as="targetPoint" />
          </mxGeometry>
        </mxCell>
        <mxCell id="z80TZEQ2g9AeHYG9c_JE-99" value="" style="endArrow=classic;html=1;rounded=0;exitX=1;exitY=0.5;exitDx=0;exitDy=0;entryX=0.5;entryY=0;entryDx=0;entryDy=0;" parent="z80TZEQ2g9AeHYG9c_JE-69" source="z80TZEQ2g9AeHYG9c_JE-95" target="z80TZEQ2g9AeHYG9c_JE-75" edge="1">
          <mxGeometry width="50" height="50" relative="1" as="geometry">
            <mxPoint x="217" y="224" as="sourcePoint" />
            <mxPoint x="477" y="84" as="targetPoint" />
            <Array as="points">
              <mxPoint x="587" y="94" />
            </Array>
          </mxGeometry>
        </mxCell>
        <mxCell id="z80TZEQ2g9AeHYG9c_JE-102" value="Graphical User Interface (GUI)" style="rounded=1;whiteSpace=wrap;html=1;fillColor=#b0e3e6;strokeColor=#0e8088;" parent="z80TZEQ2g9AeHYG9c_JE-69" vertex="1">
          <mxGeometry x="527" y="384" width="120" height="60" as="geometry" />
        </mxCell>
        <mxCell id="z80TZEQ2g9AeHYG9c_JE-106" value="" style="endArrow=classic;startArrow=classic;html=1;rounded=0;exitX=0.5;exitY=0;exitDx=0;exitDy=0;entryX=0.5;entryY=1;entryDx=0;entryDy=0;" parent="z80TZEQ2g9AeHYG9c_JE-69" source="z80TZEQ2g9AeHYG9c_JE-102" target="z80TZEQ2g9AeHYG9c_JE-75" edge="1">
          <mxGeometry width="50" height="50" relative="1" as="geometry">
            <mxPoint x="446" y="342" as="sourcePoint" />
            <mxPoint x="496" y="292" as="targetPoint" />
          </mxGeometry>
        </mxCell>
        <mxCell id="z80TZEQ2g9AeHYG9c_JE-107" value="Graphical User Interface (GUI)" style="rounded=1;whiteSpace=wrap;html=1;fillColor=#b0e3e6;strokeColor=#0e8088;" parent="1" vertex="1">
          <mxGeometry x="-2704" y="327.5" width="85" height="35" as="geometry" />
        </mxCell>
        <mxCell id="z80TZEQ2g9AeHYG9c_JE-108" value="" style="endArrow=classic;startArrow=classic;html=1;rounded=0;entryX=0;entryY=0.5;entryDx=0;entryDy=0;exitX=1;exitY=0.75;exitDx=0;exitDy=0;" parent="1" source="z80TZEQ2g9AeHYG9c_JE-37" target="z80TZEQ2g9AeHYG9c_JE-107" edge="1">
          <mxGeometry width="50" height="50" relative="1" as="geometry">
            <mxPoint x="-2861" y="348" as="sourcePoint" />
            <mxPoint x="-2811" y="298" as="targetPoint" />
          </mxGeometry>
        </mxCell>
        <mxCell id="z80TZEQ2g9AeHYG9c_JE-109" value="" style="endArrow=classic;startArrow=classic;html=1;rounded=0;entryX=0;entryY=0.7;entryDx=0;entryDy=0;exitX=1.007;exitY=0.191;exitDx=0;exitDy=0;exitPerimeter=0;" parent="1" source="z80TZEQ2g9AeHYG9c_JE-37" target="z80TZEQ2g9AeHYG9c_JE-39" edge="1">
          <mxGeometry width="50" height="50" relative="1" as="geometry">
            <mxPoint x="-2861" y="348" as="sourcePoint" />
            <mxPoint x="-2811" y="298" as="targetPoint" />
          </mxGeometry>
        </mxCell>
        <mxCell id="z80TZEQ2g9AeHYG9c_JE-86" value="" style="rounded=1;whiteSpace=wrap;html=1;fillColor=#f8cecc;strokeColor=#b85450;imageAspect=1;movable=1;resizable=1;rotatable=1;deletable=1;editable=1;locked=0;connectable=1;" parent="1" vertex="1">
          <mxGeometry x="-2276" y="856" width="96" height="39" as="geometry" />
        </mxCell>
        <mxCell id="z80TZEQ2g9AeHYG9c_JE-88" value="&lt;font style=&quot;font-size: 16px;&quot;&gt;Actuator&lt;/font&gt;" style="text;html=1;strokeColor=none;fillColor=none;align=center;verticalAlign=middle;whiteSpace=wrap;rounded=0;imageAspect=1;movable=1;resizable=1;rotatable=1;deletable=1;editable=1;locked=0;connectable=1;" parent="1" vertex="1">
          <mxGeometry x="-2165" y="869" width="60" height="24" as="geometry" />
        </mxCell>
        <mxCell id="z80TZEQ2g9AeHYG9c_JE-87" value="&lt;font style=&quot;font-size: 16px;&quot;&gt;Sensor&lt;/font&gt;" style="text;html=1;strokeColor=none;fillColor=none;align=center;verticalAlign=middle;whiteSpace=wrap;rounded=0;imageAspect=1;movable=1;resizable=1;rotatable=1;deletable=1;editable=1;locked=0;connectable=1;" parent="1" vertex="1">
          <mxGeometry x="-2216" y="782" width="148" height="53" as="geometry" />
        </mxCell>
        <mxCell id="z80TZEQ2g9AeHYG9c_JE-85" value="" style="rounded=1;whiteSpace=wrap;html=1;fillColor=#fff2cc;strokeColor=#d6b656;imageAspect=1;movable=1;resizable=1;rotatable=1;deletable=1;editable=1;locked=0;connectable=1;" parent="1" vertex="1">
          <mxGeometry x="-2276" y="788" width="94" height="40.5" as="geometry" />
        </mxCell>
        <mxCell id="tYM1qQTM0OZq-C2V82a8-1" value="Arduino Nano" style="rounded=1;whiteSpace=wrap;html=1;fillColor=#e1d5e7;strokeColor=#9673a6;" vertex="1" parent="1">
          <mxGeometry x="1388" y="1019.5" width="61.5" height="31.5" as="geometry" />
        </mxCell>
        <mxCell id="tYM1qQTM0OZq-C2V82a8-9" value="Arduino Mega" style="rounded=1;whiteSpace=wrap;html=1;fillColor=#e1d5e7;strokeColor=#9673a6;" vertex="1" parent="1">
          <mxGeometry x="1627" y="1021.5" width="61.5" height="31.5" as="geometry" />
        </mxCell>
        <mxCell id="tYM1qQTM0OZq-C2V82a8-10" value="Arduino Nano" style="rounded=1;whiteSpace=wrap;html=1;fillColor=#e1d5e7;strokeColor=#9673a6;" vertex="1" parent="1">
          <mxGeometry x="1502.25" y="1247" width="61.5" height="31.5" as="geometry" />
        </mxCell>
        <mxCell id="tYM1qQTM0OZq-C2V82a8-11" value="Arduino Mega" style="rounded=1;whiteSpace=wrap;html=1;fillColor=#e1d5e7;strokeColor=#9673a6;" vertex="1" parent="1">
          <mxGeometry x="1465" y="1019.5" width="61.5" height="31.5" as="geometry" />
        </mxCell>
        <mxCell id="tYM1qQTM0OZq-C2V82a8-12" value="Arduino Nano" style="rounded=1;whiteSpace=wrap;html=1;fillColor=#e1d5e7;strokeColor=#9673a6;" vertex="1" parent="1">
          <mxGeometry x="1705" y="1021.5" width="61.5" height="31.5" as="geometry" />
        </mxCell>
        <mxCell id="tYM1qQTM0OZq-C2V82a8-13" value="Arduino Mega" style="rounded=1;whiteSpace=wrap;html=1;fillColor=#e1d5e7;strokeColor=#9673a6;" vertex="1" parent="1">
          <mxGeometry x="1580.25" y="1247" width="61.5" height="31.5" as="geometry" />
        </mxCell>
        <mxCell id="tYM1qQTM0OZq-C2V82a8-32" value="" style="endArrow=classic;html=1;rounded=0;exitX=0.25;exitY=1;exitDx=0;exitDy=0;entryX=0.5;entryY=0;entryDx=0;entryDy=0;" edge="1" parent="1" source="A_3v8HXZ6naFGi0Af-2t-7" target="tYM1qQTM0OZq-C2V82a8-1">
          <mxGeometry width="50" height="50" relative="1" as="geometry">
            <mxPoint x="1408" y="1041" as="sourcePoint" />
            <mxPoint x="1458" y="991" as="targetPoint" />
          </mxGeometry>
        </mxCell>
        <mxCell id="tYM1qQTM0OZq-C2V82a8-33" value="" style="endArrow=classic;html=1;rounded=0;exitX=0.5;exitY=0;exitDx=0;exitDy=0;entryX=0.75;entryY=1;entryDx=0;entryDy=0;" edge="1" parent="1" source="tYM1qQTM0OZq-C2V82a8-11" target="A_3v8HXZ6naFGi0Af-2t-7">
          <mxGeometry width="50" height="50" relative="1" as="geometry">
            <mxPoint x="1408" y="1041" as="sourcePoint" />
            <mxPoint x="1458" y="991" as="targetPoint" />
          </mxGeometry>
        </mxCell>
        <mxCell id="tYM1qQTM0OZq-C2V82a8-34" value="" style="endArrow=classic;html=1;rounded=0;exitX=0.5;exitY=0;exitDx=0;exitDy=0;entryX=0.25;entryY=1;entryDx=0;entryDy=0;" edge="1" parent="1" source="tYM1qQTM0OZq-C2V82a8-9" target="A_3v8HXZ6naFGi0Af-2t-9">
          <mxGeometry width="50" height="50" relative="1" as="geometry">
            <mxPoint x="1655" y="1013" as="sourcePoint" />
            <mxPoint x="1705" y="963" as="targetPoint" />
          </mxGeometry>
        </mxCell>
        <mxCell id="tYM1qQTM0OZq-C2V82a8-35" value="" style="endArrow=classic;html=1;rounded=0;exitX=0.75;exitY=1;exitDx=0;exitDy=0;entryX=0.5;entryY=0;entryDx=0;entryDy=0;" edge="1" parent="1" source="A_3v8HXZ6naFGi0Af-2t-9" target="tYM1qQTM0OZq-C2V82a8-12">
          <mxGeometry width="50" height="50" relative="1" as="geometry">
            <mxPoint x="1668" y="1032" as="sourcePoint" />
            <mxPoint x="1672" y="986" as="targetPoint" />
          </mxGeometry>
        </mxCell>
        <mxCell id="tYM1qQTM0OZq-C2V82a8-36" value="" style="endArrow=classic;html=1;rounded=0;exitX=0.25;exitY=0;exitDx=0;exitDy=0;entryX=0.5;entryY=1;entryDx=0;entryDy=0;" edge="1" parent="1" source="A_3v8HXZ6naFGi0Af-2t-10" target="tYM1qQTM0OZq-C2V82a8-10">
          <mxGeometry width="50" height="50" relative="1" as="geometry">
            <mxPoint x="1518.25" y="1314" as="sourcePoint" />
            <mxPoint x="1568.25" y="1264" as="targetPoint" />
          </mxGeometry>
        </mxCell>
        <mxCell id="tYM1qQTM0OZq-C2V82a8-37" value="" style="endArrow=classic;html=1;rounded=0;exitX=0.5;exitY=1;exitDx=0;exitDy=0;entryX=0.75;entryY=0;entryDx=0;entryDy=0;" edge="1" parent="1" source="tYM1qQTM0OZq-C2V82a8-13" target="A_3v8HXZ6naFGi0Af-2t-10">
          <mxGeometry width="50" height="50" relative="1" as="geometry">
            <mxPoint x="1518.25" y="1314" as="sourcePoint" />
            <mxPoint x="1568.25" y="1264" as="targetPoint" />
          </mxGeometry>
        </mxCell>
        <mxCell id="tYM1qQTM0OZq-C2V82a8-38" value="" style="endArrow=classic;html=1;rounded=0;exitX=1;exitY=0.5;exitDx=0;exitDy=0;entryX=0;entryY=0.5;entryDx=0;entryDy=0;" edge="1" parent="1" source="tYM1qQTM0OZq-C2V82a8-1" target="tYM1qQTM0OZq-C2V82a8-11">
          <mxGeometry width="50" height="50" relative="1" as="geometry">
            <mxPoint x="1492" y="1089" as="sourcePoint" />
            <mxPoint x="1542" y="1039" as="targetPoint" />
          </mxGeometry>
        </mxCell>
        <mxCell id="tYM1qQTM0OZq-C2V82a8-39" value="" style="endArrow=classic;html=1;rounded=0;exitX=0;exitY=0.5;exitDx=0;exitDy=0;entryX=1;entryY=0.5;entryDx=0;entryDy=0;" edge="1" parent="1" source="tYM1qQTM0OZq-C2V82a8-12" target="tYM1qQTM0OZq-C2V82a8-9">
          <mxGeometry width="50" height="50" relative="1" as="geometry">
            <mxPoint x="1647" y="986" as="sourcePoint" />
            <mxPoint x="1597" y="1036" as="targetPoint" />
          </mxGeometry>
        </mxCell>
        <mxCell id="tYM1qQTM0OZq-C2V82a8-40" value="" style="endArrow=classic;html=1;rounded=0;exitX=1;exitY=0.5;exitDx=0;exitDy=0;entryX=0;entryY=0.5;entryDx=0;entryDy=0;" edge="1" parent="1" source="tYM1qQTM0OZq-C2V82a8-10" target="tYM1qQTM0OZq-C2V82a8-13">
          <mxGeometry width="50" height="50" relative="1" as="geometry">
            <mxPoint x="1500.25" y="1257" as="sourcePoint" />
            <mxPoint x="1550.25" y="1207" as="targetPoint" />
          </mxGeometry>
        </mxCell>
        <mxCell id="tYM1qQTM0OZq-C2V82a8-41" value="" style="endArrow=classic;startArrow=classic;html=1;rounded=0;entryX=0.5;entryY=1;entryDx=0;entryDy=0;exitX=0.25;exitY=0;exitDx=0;exitDy=0;" edge="1" parent="1" source="A_3v8HXZ6naFGi0Af-2t-15" target="tYM1qQTM0OZq-C2V82a8-11">
          <mxGeometry width="50" height="50" relative="1" as="geometry">
            <mxPoint x="1570" y="1179" as="sourcePoint" />
            <mxPoint x="1620" y="1129" as="targetPoint" />
          </mxGeometry>
        </mxCell>
        <mxCell id="tYM1qQTM0OZq-C2V82a8-42" value="" style="endArrow=classic;startArrow=classic;html=1;rounded=0;entryX=0.5;entryY=1;entryDx=0;entryDy=0;exitX=0.75;exitY=0;exitDx=0;exitDy=0;" edge="1" parent="1" source="A_3v8HXZ6naFGi0Af-2t-15" target="tYM1qQTM0OZq-C2V82a8-9">
          <mxGeometry width="50" height="50" relative="1" as="geometry">
            <mxPoint x="1557" y="1130" as="sourcePoint" />
            <mxPoint x="1506" y="1061" as="targetPoint" />
          </mxGeometry>
        </mxCell>
        <mxCell id="tYM1qQTM0OZq-C2V82a8-43" value="" style="endArrow=classic;startArrow=classic;html=1;rounded=0;entryX=0.5;entryY=1;entryDx=0;entryDy=0;exitX=0.5;exitY=0;exitDx=0;exitDy=0;" edge="1" parent="1" source="tYM1qQTM0OZq-C2V82a8-13" target="A_3v8HXZ6naFGi0Af-2t-15">
          <mxGeometry width="50" height="50" relative="1" as="geometry">
            <mxPoint x="1539" y="1219" as="sourcePoint" />
            <mxPoint x="1589" y="1169" as="targetPoint" />
          </mxGeometry>
        </mxCell>
      </root>
    </mxGraphModel>
  </diagram>
  <diagram id="6-hEXsd8BnIjxrc6S6x3" name="Page-2">
    <mxGraphModel dx="4551" dy="362" grid="0" gridSize="10" guides="1" tooltips="1" connect="1" arrows="1" fold="1" page="0" pageScale="1" pageWidth="1800" pageHeight="818" math="0" shadow="0">
      <root>
        <mxCell id="0" />
        <mxCell id="1" parent="0" />
        <mxCell id="QREW-sIqeXu5Laig5gO7-1" value="" style="endArrow=classic;html=1;rounded=0;exitX=0.75;exitY=0;exitDx=0;exitDy=0;entryX=0.5;entryY=1;entryDx=0;entryDy=0;" edge="1" parent="1" source="QREW-sIqeXu5Laig5gO7-3" target="QREW-sIqeXu5Laig5gO7-17">
          <mxGeometry width="50" height="50" relative="1" as="geometry">
            <mxPoint x="-2063.5" y="519.5" as="sourcePoint" />
            <mxPoint x="-2135.25" y="521.4999999999998" as="targetPoint" />
          </mxGeometry>
        </mxCell>
        <mxCell id="QREW-sIqeXu5Laig5gO7-2" value="" style="edgeStyle=orthogonalEdgeStyle;rounded=0;orthogonalLoop=1;jettySize=auto;html=1;" edge="1" parent="1" source="QREW-sIqeXu5Laig5gO7-3" target="QREW-sIqeXu5Laig5gO7-20">
          <mxGeometry relative="1" as="geometry" />
        </mxCell>
        <mxCell id="QREW-sIqeXu5Laig5gO7-3" value="Nutrient Solution Container" style="rounded=0;whiteSpace=wrap;html=1;fillColor=#ffcc99;strokeColor=#36393d;" vertex="1" parent="1">
          <mxGeometry x="-2284" y="571" width="166.5" height="80.5" as="geometry" />
        </mxCell>
        <mxCell id="QREW-sIqeXu5Laig5gO7-4" value="Dosing System" style="rounded=1;whiteSpace=wrap;html=1;fillColor=#f8cecc;strokeColor=#b85450;" vertex="1" parent="1">
          <mxGeometry x="-2059.5" y="586.25" width="89" height="50" as="geometry" />
        </mxCell>
        <mxCell id="QREW-sIqeXu5Laig5gO7-5" value="pH Up" style="rounded=1;whiteSpace=wrap;html=1;" vertex="1" parent="1">
          <mxGeometry x="-1908.5" y="639.5" width="60" height="30" as="geometry" />
        </mxCell>
        <mxCell id="QREW-sIqeXu5Laig5gO7-6" value="pH sensor" style="rounded=1;whiteSpace=wrap;html=1;fillColor=#fff2cc;strokeColor=#d6b656;" vertex="1" parent="1">
          <mxGeometry x="-2149.5" y="704.5" width="60" height="30" as="geometry" />
        </mxCell>
        <mxCell id="QREW-sIqeXu5Laig5gO7-7" value="Water Pump" style="rounded=1;whiteSpace=wrap;html=1;fillColor=#f8cecc;strokeColor=#b85450;" vertex="1" parent="1">
          <mxGeometry x="-2417" y="565" width="73" height="45" as="geometry" />
        </mxCell>
        <mxCell id="QREW-sIqeXu5Laig5gO7-8" value="Air Pump" style="rounded=1;whiteSpace=wrap;html=1;fillColor=#f8cecc;strokeColor=#b85450;" vertex="1" parent="1">
          <mxGeometry x="-2417" y="613.5" width="74" height="34" as="geometry" />
        </mxCell>
        <mxCell id="QREW-sIqeXu5Laig5gO7-9" value="Nutrient Solution A" style="rounded=1;whiteSpace=wrap;html=1;" vertex="1" parent="1">
          <mxGeometry x="-1908.5" y="510.5" width="60" height="30" as="geometry" />
        </mxCell>
        <mxCell id="QREW-sIqeXu5Laig5gO7-10" value="Nutrient Solution B" style="rounded=1;whiteSpace=wrap;html=1;" vertex="1" parent="1">
          <mxGeometry x="-1908.5" y="554.5" width="60" height="30" as="geometry" />
        </mxCell>
        <mxCell id="QREW-sIqeXu5Laig5gO7-11" value="Electrical Conductivity sensor&amp;nbsp;" style="rounded=1;whiteSpace=wrap;html=1;fillColor=#fff2cc;strokeColor=#d6b656;" vertex="1" parent="1">
          <mxGeometry x="-2329.5" y="701.75" width="73" height="42.5" as="geometry" />
        </mxCell>
        <mxCell id="QREW-sIqeXu5Laig5gO7-12" value="" style="endArrow=classic;html=1;rounded=0;fontSize=9;exitX=1;exitY=0.5;exitDx=0;exitDy=0;entryX=-0.007;entryY=0.203;entryDx=0;entryDy=0;entryPerimeter=0;" edge="1" parent="1" source="QREW-sIqeXu5Laig5gO7-7" target="QREW-sIqeXu5Laig5gO7-3">
          <mxGeometry width="50" height="50" relative="1" as="geometry">
            <mxPoint x="-2178.5" y="658.5" as="sourcePoint" />
            <mxPoint x="-2128.5" y="608.5" as="targetPoint" />
          </mxGeometry>
        </mxCell>
        <mxCell id="QREW-sIqeXu5Laig5gO7-13" value="" style="endArrow=classic;html=1;rounded=0;fontSize=9;exitX=1;exitY=0.5;exitDx=0;exitDy=0;entryX=0;entryY=0.75;entryDx=0;entryDy=0;" edge="1" parent="1" source="QREW-sIqeXu5Laig5gO7-8" target="QREW-sIqeXu5Laig5gO7-3">
          <mxGeometry width="50" height="50" relative="1" as="geometry">
            <mxPoint x="-2178.5" y="658.5" as="sourcePoint" />
            <mxPoint x="-2128.5" y="608.5" as="targetPoint" />
          </mxGeometry>
        </mxCell>
        <mxCell id="QREW-sIqeXu5Laig5gO7-14" value="" style="endArrow=classic;html=1;rounded=0;fontSize=9;exitX=0;exitY=0.5;exitDx=0;exitDy=0;entryX=1;entryY=0.5;entryDx=0;entryDy=0;" edge="1" parent="1" source="QREW-sIqeXu5Laig5gO7-4" target="QREW-sIqeXu5Laig5gO7-3">
          <mxGeometry width="50" height="50" relative="1" as="geometry">
            <mxPoint x="-2178.5" y="658.5" as="sourcePoint" />
            <mxPoint x="-2098.5" y="583.5" as="targetPoint" />
          </mxGeometry>
        </mxCell>
        <mxCell id="QREW-sIqeXu5Laig5gO7-15" value="" style="endArrow=classic;html=1;rounded=0;fontSize=9;exitX=0.25;exitY=1;exitDx=0;exitDy=0;entryX=0.362;entryY=-0.009;entryDx=0;entryDy=0;entryPerimeter=0;" edge="1" parent="1" source="QREW-sIqeXu5Laig5gO7-3" target="QREW-sIqeXu5Laig5gO7-11">
          <mxGeometry width="50" height="50" relative="1" as="geometry">
            <mxPoint x="-2261" y="668.5" as="sourcePoint" />
            <mxPoint x="-2178.5" y="668.5" as="targetPoint" />
          </mxGeometry>
        </mxCell>
        <mxCell id="QREW-sIqeXu5Laig5gO7-16" value="" style="endArrow=classic;html=1;rounded=0;fontSize=9;exitX=0.75;exitY=1;exitDx=0;exitDy=0;entryX=0.465;entryY=-0.016;entryDx=0;entryDy=0;entryPerimeter=0;" edge="1" parent="1" source="QREW-sIqeXu5Laig5gO7-3" target="QREW-sIqeXu5Laig5gO7-6">
          <mxGeometry width="50" height="50" relative="1" as="geometry">
            <mxPoint x="-2148.5" y="708.5" as="sourcePoint" />
            <mxPoint x="-2098.5" y="658.5" as="targetPoint" />
          </mxGeometry>
        </mxCell>
        <mxCell id="QREW-sIqeXu5Laig5gO7-17" value="Water Level sensor" style="rounded=1;whiteSpace=wrap;html=1;fillColor=#fff2cc;strokeColor=#d6b656;" vertex="1" parent="1">
          <mxGeometry x="-2193.5" y="495" width="68" height="29" as="geometry" />
        </mxCell>
        <mxCell id="QREW-sIqeXu5Laig5gO7-18" value="&lt;span style=&quot;font-size: 12px;&quot;&gt;Thermoelectric Cooler&lt;/span&gt;" style="rounded=1;whiteSpace=wrap;html=1;fillColor=#f8cecc;strokeColor=#b85450;" vertex="1" parent="1">
          <mxGeometry x="-2287.5" y="494" width="90" height="30" as="geometry" />
        </mxCell>
        <mxCell id="QREW-sIqeXu5Laig5gO7-19" value="" style="endArrow=classic;html=1;rounded=0;exitX=0.5;exitY=1;exitDx=0;exitDy=0;entryX=0.25;entryY=0;entryDx=0;entryDy=0;" edge="1" parent="1" source="QREW-sIqeXu5Laig5gO7-18" target="QREW-sIqeXu5Laig5gO7-3">
          <mxGeometry width="50" height="50" relative="1" as="geometry">
            <mxPoint x="-2052.5" y="629.5" as="sourcePoint" />
            <mxPoint x="-2102.5" y="679.5" as="targetPoint" />
          </mxGeometry>
        </mxCell>
        <mxCell id="QREW-sIqeXu5Laig5gO7-20" value="Temperature sensor" style="rounded=1;whiteSpace=wrap;html=1;fillColor=#fff2cc;strokeColor=#d6b656;" vertex="1" parent="1">
          <mxGeometry x="-2238" y="704.5" width="75" height="30" as="geometry" />
        </mxCell>
        <mxCell id="QREW-sIqeXu5Laig5gO7-21" value="pH Down" style="rounded=1;whiteSpace=wrap;html=1;" vertex="1" parent="1">
          <mxGeometry x="-1906.5" y="680.5" width="60" height="30" as="geometry" />
        </mxCell>
        <mxCell id="QREW-sIqeXu5Laig5gO7-22" value="Distilled Water" style="rounded=1;whiteSpace=wrap;html=1;" vertex="1" parent="1">
          <mxGeometry x="-1908.5" y="597" width="60" height="30" as="geometry" />
        </mxCell>
        <mxCell id="QREW-sIqeXu5Laig5gO7-23" value="" style="endArrow=classic;html=1;rounded=0;exitX=0;exitY=0.5;exitDx=0;exitDy=0;entryX=1;entryY=0.5;entryDx=0;entryDy=0;" edge="1" parent="1" source="QREW-sIqeXu5Laig5gO7-22" target="QREW-sIqeXu5Laig5gO7-4">
          <mxGeometry width="50" height="50" relative="1" as="geometry">
            <mxPoint x="-2034.5" y="638" as="sourcePoint" />
            <mxPoint x="-1984.5" y="588" as="targetPoint" />
          </mxGeometry>
        </mxCell>
        <mxCell id="QREW-sIqeXu5Laig5gO7-24" value="" style="endArrow=classic;html=1;rounded=0;exitX=0;exitY=0.5;exitDx=0;exitDy=0;entryX=1;entryY=0.75;entryDx=0;entryDy=0;" edge="1" parent="1" source="QREW-sIqeXu5Laig5gO7-5" target="QREW-sIqeXu5Laig5gO7-4">
          <mxGeometry width="50" height="50" relative="1" as="geometry">
            <mxPoint x="-1952.5" y="649" as="sourcePoint" />
            <mxPoint x="-1902.5" y="599" as="targetPoint" />
          </mxGeometry>
        </mxCell>
        <mxCell id="QREW-sIqeXu5Laig5gO7-25" value="" style="endArrow=classic;html=1;rounded=0;exitX=0;exitY=0.5;exitDx=0;exitDy=0;entryX=1;entryY=1;entryDx=0;entryDy=0;" edge="1" parent="1" source="QREW-sIqeXu5Laig5gO7-21" target="QREW-sIqeXu5Laig5gO7-4">
          <mxGeometry width="50" height="50" relative="1" as="geometry">
            <mxPoint x="-1952.5" y="649" as="sourcePoint" />
            <mxPoint x="-1902.5" y="599" as="targetPoint" />
          </mxGeometry>
        </mxCell>
        <mxCell id="QREW-sIqeXu5Laig5gO7-26" value="" style="endArrow=classic;html=1;rounded=0;exitX=0;exitY=0.5;exitDx=0;exitDy=0;entryX=1;entryY=0.25;entryDx=0;entryDy=0;" edge="1" parent="1" source="QREW-sIqeXu5Laig5gO7-10" target="QREW-sIqeXu5Laig5gO7-4">
          <mxGeometry width="50" height="50" relative="1" as="geometry">
            <mxPoint x="-1952.5" y="649" as="sourcePoint" />
            <mxPoint x="-1902.5" y="599" as="targetPoint" />
          </mxGeometry>
        </mxCell>
        <mxCell id="QREW-sIqeXu5Laig5gO7-27" value="" style="endArrow=classic;html=1;rounded=0;exitX=0;exitY=0.5;exitDx=0;exitDy=0;entryX=1;entryY=0;entryDx=0;entryDy=0;" edge="1" parent="1" source="QREW-sIqeXu5Laig5gO7-9" target="QREW-sIqeXu5Laig5gO7-4">
          <mxGeometry width="50" height="50" relative="1" as="geometry">
            <mxPoint x="-1952.5" y="649" as="sourcePoint" />
            <mxPoint x="-1902.5" y="599" as="targetPoint" />
          </mxGeometry>
        </mxCell>
      </root>
    </mxGraphModel>
  </diagram>
</mxfile>
